<svg width="20" height="12" viewBox="0 0 20 12" fill="none" xmlns="http://www.w3.org/2000/svg">
<path d="M14.7595 3.37316L14.3725 4.25062H15.1486L14.7595 3.37316ZM10.294 3.91691C10.3669 3.8813 10.4099 3.80384 10.4099 3.70765C10.4099 3.61339 10.3648 3.54513 10.2918 3.51305C10.2254 3.47749 10.1232 3.47338 10.0252 3.47338H9.33287V3.96228H10.0159C10.1253 3.96231 10.2167 3.9608 10.294 3.91691ZM1.42277 3.37316L1.04018 4.25062H1.80768L1.42277 3.37316ZM19.236 8.9944H18.1502V8.5223H19.2316C19.3388 8.5223 19.4139 8.50915 19.4591 8.46776C19.5018 8.43087 19.526 8.37873 19.5256 8.32422C19.5256 8.26006 19.4983 8.20912 19.4568 8.17865C19.4161 8.14504 19.3567 8.12974 19.2587 8.12974C18.7308 8.11296 18.0722 8.14499 18.0722 7.44831C18.0722 7.12902 18.2889 6.79291 18.8789 6.79291H19.9989V6.35487H18.9583C18.6443 6.35487 18.4162 6.42524 18.2547 6.5347V6.35487H16.7156C16.4695 6.35487 16.1806 6.41194 16.044 6.5347V6.35487H13.2955V6.5347C13.0768 6.38702 12.7077 6.35487 12.5374 6.35487H10.7245V6.5347C10.5515 6.37788 10.1666 6.35487 9.93211 6.35487H7.90317L7.43896 6.82504L7.0041 6.35487H3.97327V9.42705H6.94692L7.42526 8.94935L7.87591 9.42705L9.70888 9.42855V8.70586H9.88914C10.1323 8.70952 10.4191 8.70027 10.6723 8.5979V9.42695H12.1842V8.6262H12.2571C12.3501 8.6262 12.3593 8.62986 12.3593 8.71688V9.42678H16.9523C17.2439 9.42678 17.5487 9.35701 17.7174 9.23012V9.42678H19.1743C19.4774 9.42678 19.7735 9.38701 19.9988 9.28521V8.71292C19.8623 8.89979 19.596 8.99452 19.2359 8.99452L19.236 8.9944ZM9.91321 8.269H9.21166V9.00744H8.11887L7.42655 8.27866L6.70709 9.00744H4.48002V6.80588H6.74135L7.43306 7.52755L8.1482 6.80588H9.94475C10.3909 6.80588 10.8923 6.9215 10.8923 7.53118C10.8923 8.14276 10.4047 8.269 9.91321 8.269ZM13.2866 8.16918C13.366 8.27664 13.3775 8.37696 13.3798 8.57103V9.00747H12.8153V8.73205C12.8153 8.59961 12.8289 8.40347 12.7244 8.3011C12.6424 8.22227 12.5171 8.20344 12.3119 8.20344H11.711V9.00747H11.1461V6.8059H12.4441C12.7289 6.8059 12.9361 6.81775 13.1206 6.90978C13.2981 7.0101 13.4098 7.14753 13.4098 7.39868C13.4097 7.75005 13.1593 7.9293 13.0113 7.98439C13.1363 8.02759 13.2386 8.10505 13.2866 8.16918ZM15.6091 7.2612H14.2925V7.66142H15.5769V8.11063H14.2925V8.54867L15.6091 8.55062V9.00744H13.7326V6.80588H15.6091V7.2612ZM17.0539 9.00742H15.9588V8.53532H17.0495C17.1562 8.53532 17.2318 8.52212 17.2792 8.48078C17.3178 8.44675 17.3456 8.39724 17.3456 8.33729C17.3456 8.27308 17.3155 8.22214 17.277 8.19159C17.234 8.15804 17.1746 8.14284 17.0768 8.14284C16.5509 8.12596 15.8925 8.15799 15.8925 7.46136C15.8925 7.14202 16.1069 6.8059 16.6963 6.8059H17.8235V7.27442H16.7921C16.6899 7.27442 16.6234 7.27808 16.5669 7.31429C16.5052 7.34995 16.4824 7.40281 16.4824 7.4726C16.4824 7.55564 16.5347 7.61219 16.6054 7.63661C16.6647 7.65591 16.7284 7.66155 16.8242 7.66155L17.1269 7.66929C17.432 7.67612 17.6416 7.72563 17.769 7.84628C17.8784 7.95226 17.9372 8.08614 17.9372 8.3127C17.9371 8.78632 17.6209 9.00742 17.0539 9.00742ZM12.6932 7.29671C12.6253 7.25894 12.5251 7.25694 12.425 7.25694H11.7327V7.75137H12.4158C12.5251 7.75137 12.6181 7.74774 12.6932 7.706C12.7661 7.66478 12.8097 7.58885 12.8097 7.49469C12.8097 7.40053 12.7661 7.33237 12.6932 7.29671ZM18.9752 7.25689C18.8729 7.25689 18.8049 7.26052 18.7477 7.29666C18.6883 7.33237 18.6656 7.38523 18.6656 7.45507C18.6656 7.53806 18.7156 7.59461 18.7885 7.61908C18.8478 7.63838 18.9115 7.64402 19.0051 7.64402L19.3099 7.65161C19.6173 7.65874 19.8227 7.70825 19.9478 7.82891C19.9706 7.84563 19.9843 7.86447 20 7.88335V7.25694H18.9752L18.9752 7.25689ZM9.93268 7.25689H9.19958V7.81761H9.92616C10.1422 7.81761 10.2765 7.71729 10.2766 7.52685C10.2765 7.33432 10.1357 7.25689 9.93268 7.25689ZM5.04001 7.25689V7.65717H6.27429V8.10637H5.04001V8.54436H6.42232L7.06456 7.8985L6.4496 7.25689H5.04001ZM8.64957 8.79646V7.03144L7.78637 7.89975L8.64957 8.79646ZM5.08719 5.26175V5.64109H9.78447L9.78229 4.83859H9.87319C9.93686 4.84066 9.95537 4.84615 9.95537 4.94449V5.64111H12.3849V5.45427C12.5808 5.55254 12.8856 5.64111 13.2866 5.64111H14.3087L14.5274 5.15224H15.0124L15.2263 5.64111H17.1959V5.17673L17.494 5.64109H19.0724V2.57141H17.5105V2.93395L17.2917 2.57141H15.689V2.93395L15.4881 2.57141H13.3231C12.9606 2.57141 12.6422 2.61874 12.3848 2.75066V2.57141H10.8907V2.75066C10.727 2.61468 10.5038 2.57141 10.2558 2.57141H4.79749L4.43128 3.3643L4.05516 2.57141H2.33597V2.93395L2.14707 2.57141H0.680887L2.56416e-05 4.03097V5.19847L1.00682 2.9974H1.84219L2.79837 5.08135V2.9974H3.71605L4.45184 4.49055L5.1278 2.9974H6.0639V5.19847H5.48761L5.4855 3.47463L4.6702 5.19847H4.17655L3.35917 3.47311V5.19847H2.21556L1.99953 4.70751H0.82889L0.610629 5.19847H0V5.64126H0.960688L1.17728 5.15236H1.66227L1.8783 5.64126H3.76841V5.26746L3.93711 5.64282H4.91831L5.08703 5.26182L5.08719 5.26175ZM12.4891 3.25396C12.6708 3.07829 12.9555 2.99728 13.343 2.99728H13.8872V3.4689H13.3544C13.1493 3.4689 13.0333 3.49745 12.9218 3.59932C12.8259 3.69198 12.7601 3.86717 12.7601 4.09786C12.7601 4.33368 12.8103 4.5037 12.9147 4.61476C13.0013 4.70185 13.1586 4.72827 13.3066 4.72827H13.5592L14.3515 2.99735H15.1939L16.1459 5.07922V2.99738H17.0019L17.9902 4.53029V2.99738H18.5661V5.19837H17.7694L16.7037 3.54638V5.19837H15.5586L15.3399 4.70741H14.1719L13.9596 5.19837H13.3017C13.0284 5.19837 12.6824 5.14182 12.4865 4.95491C12.2888 4.76804 12.1861 4.51489 12.1861 4.11466C12.186 3.78819 12.2474 3.48979 12.4891 3.25396ZM11.3327 2.9973H11.9063V5.19837H11.3327V2.9973ZM8.74621 2.9973H10.0394C10.3266 2.9973 10.5385 3.00444 10.7202 3.10273C10.8981 3.20105 11.0047 3.34459 11.0047 3.59005C11.0047 3.94102 10.7544 4.1223 10.6086 4.17677C10.7316 4.22059 10.8367 4.298 10.8868 4.36211C10.9662 4.47159 10.9799 4.56938 10.9799 4.76594V5.19834H10.4128L10.4107 4.92077C10.4107 4.7883 10.4242 4.59783 10.3219 4.492C10.2398 4.41462 10.1145 4.39777 9.91209 4.39777H9.30854V5.19837H8.74629L8.74621 2.9973ZM6.47968 2.9973H8.3579V3.45565H7.04197V3.8524H8.32631V4.30358H7.04197V4.74315H8.3579V5.19834H6.47968V2.9973Z" fill="#2557D6"/>
</svg>
