<svg width="24" height="24" viewBox="0 0 24 24" fill="none" xmlns="http://www.w3.org/2000/svg">
<path fill-rule="evenodd" clip-rule="evenodd" d="M5.39966 13.8997C5.69256 13.6068 6.16743 13.6068 6.46032 13.8997L12 19.4393L17.5397 13.8997C17.8326 13.6068 18.3074 13.6068 18.6003 13.8997C18.8932 14.1926 18.8932 14.6674 18.6003 14.9603L12.5303 21.0303C12.3897 21.171 12.1989 21.25 12 21.25C11.8011 21.25 11.6103 21.171 11.4697 21.0303L5.39966 14.9603C5.10677 14.6674 5.10677 14.1926 5.39966 13.8997Z" fill="currentColor"/>
<path fill-rule="evenodd" clip-rule="evenodd" d="M12 2.75C12.4142 2.75 12.75 3.08579 12.75 3.5V20.33C12.75 20.7442 12.4142 21.08 12 21.08C11.5858 21.08 11.25 20.7442 11.25 20.33V3.5C11.25 3.08579 11.5858 2.75 12 2.75Z" fill="currentColor"/>
</svg>
