<svg width="24" height="24" viewBox="0 0 24 24" fill="none" xmlns="http://www.w3.org/2000/svg">
<path d="M15.2866 6.66748C15.0068 6.36216 15.0272 5.88778 15.3325 5.6079C15.6378 5.32824 16.1122 5.34868 16.392 5.6538L21.2729 10.978C21.4063 11.1235 21.5565 11.2855 21.6645 11.439C21.7847 11.61 21.9105 11.8495 21.9106 12.1607C21.9106 12.4718 21.7847 12.7113 21.6645 12.8824C21.5566 13.0358 21.4062 13.1978 21.2729 13.3433L16.392 18.6675L16.3373 18.7213C16.0535 18.9741 15.6187 18.9758 15.3325 18.7134C15.0464 18.4511 15.0106 18.0181 15.2377 17.7134L15.2866 17.6539L20.1674 12.3296C20.2287 12.2628 20.2777 12.208 20.3198 12.1607C20.2777 12.1133 20.2287 12.0586 20.1674 11.9917L15.2866 6.66748ZM8.78656 6.66748C8.50677 6.36216 8.52723 5.88778 8.83246 5.6079C9.13775 5.32824 9.61218 5.34868 9.89203 5.6538L14.7729 10.978C14.9062 11.1235 15.0565 11.2855 15.1645 11.439C15.2847 11.61 15.4105 11.8495 15.4106 12.1607C15.4106 12.4718 15.2847 12.7113 15.1645 12.8824C15.0566 13.0358 14.9062 13.1978 14.7729 13.3433L9.89203 18.6675L9.83734 18.7213C9.55348 18.9741 9.11871 18.9758 8.83246 18.7134C8.54638 18.4511 8.51063 18.0181 8.73773 17.7134L8.78656 17.6539L13.6674 12.3296C13.7287 12.2628 13.7777 12.208 13.8198 12.1607C13.7777 12.1133 13.7287 12.0586 13.6674 11.9917L8.78656 6.66748ZM2.28656 6.66748C2.00676 6.36216 2.02723 5.88778 2.33246 5.6079C2.63775 5.32824 3.11217 5.34868 3.39203 5.6538L8.27289 10.978C8.40624 11.1235 8.55652 11.2855 8.66449 11.439C8.78472 11.61 8.91052 11.8495 8.91058 12.1607C8.91058 12.4718 8.7847 12.7113 8.66449 12.8824C8.55657 13.0358 8.40623 13.1978 8.27289 13.3433L3.39203 18.6675L3.33734 18.7213C3.05347 18.9741 2.61871 18.9758 2.33246 18.7134C2.04637 18.4511 2.01062 18.0181 2.23773 17.7134L2.28656 17.6539L7.16742 12.3296C7.22866 12.2628 7.27769 12.208 7.31976 12.1607C7.27766 12.1133 7.22871 12.0586 7.16742 11.9917L2.28656 6.66748Z" fill="currentColor"/>
</svg>
