<svg width="24" height="24" viewBox="0 0 24 24" fill="none" xmlns="http://www.w3.org/2000/svg">
<path fill-rule="evenodd" clip-rule="evenodd" d="M12 2.75C12.1989 2.75 12.3897 2.82902 12.5303 2.96967L18.6003 9.03967C18.8932 9.33256 18.8932 9.80744 18.6003 10.1003C18.3074 10.3932 17.8326 10.3932 17.5397 10.1003L12 4.56066L6.46032 10.1003C6.16743 10.3932 5.69256 10.3932 5.39966 10.1003C5.10677 9.80744 5.10677 9.33256 5.39966 9.03967L11.4697 2.96967C11.6103 2.82902 11.8011 2.75 12 2.75Z" fill="currentColor"/>
<path fill-rule="evenodd" clip-rule="evenodd" d="M12 2.92C12.4142 2.92 12.75 3.25578 12.75 3.67V20.5C12.75 20.9142 12.4142 21.25 12 21.25C11.5858 21.25 11.25 20.9142 11.25 20.5V3.67C11.25 3.25578 11.5858 2.92 12 2.92Z" fill="currentColor"/>
</svg>
