<svg width="24" height="24" viewBox="0 0 24 24" fill="none" xmlns="http://www.w3.org/2000/svg">
<path d="M6.50679 8.87414C6.20147 9.15394 5.72709 9.13347 5.44721 8.82824C5.16755 8.52295 5.18799 8.04853 5.49311 7.76867L10.8174 2.88781C10.9628 2.75445 11.1248 2.60417 11.2783 2.49621C11.4493 2.37598 11.6888 2.25018 12 2.25012C12.3111 2.25012 12.5506 2.376 12.7217 2.49621C12.8751 2.60413 13.0371 2.75447 13.1826 2.88781L18.5069 7.76867L18.5606 7.82336C18.8134 8.10722 18.8152 8.54199 18.5528 8.82824C18.2904 9.11433 17.8574 9.15007 17.5527 8.92297L17.4932 8.87414L12.1689 3.99328C12.1021 3.93204 12.0473 3.88301 12 3.84094C11.9526 3.88304 11.8979 3.93198 11.831 3.99328L6.50679 8.87414ZM6.50679 15.3741C6.20147 15.6539 5.72709 15.6335 5.44721 15.3282C5.16755 15.023 5.18799 14.5485 5.49311 14.2687L10.8174 9.38781C10.9628 9.25446 11.1248 9.10418 11.2783 8.99621C11.4493 8.87599 11.6888 8.75019 12 8.75012C12.3111 8.75012 12.5506 8.876 12.7217 8.99621C12.8751 9.10413 13.0371 9.25447 13.1826 9.38781L18.5069 14.2687L18.5606 14.3234C18.8134 14.6072 18.8152 15.042 18.5528 15.3282C18.2904 15.6143 17.8574 15.6501 17.5527 15.423L17.4932 15.3741L12.1689 10.4933C12.1021 10.432 12.0473 10.383 12 10.3409C11.9526 10.383 11.8979 10.432 11.831 10.4933L6.50679 15.3741ZM6.50679 21.8741C6.20147 22.1539 5.72709 22.1335 5.44721 21.8283C5.16755 21.523 5.18799 21.0485 5.49311 20.7687L10.8174 15.8878C10.9628 15.7545 11.1248 15.6042 11.2783 15.4962C11.4493 15.376 11.6888 15.2502 12 15.2501C12.3111 15.2501 12.5506 15.376 12.7217 15.4962C12.8751 15.6041 13.0371 15.7545 13.1826 15.8878L18.5069 20.7687L18.5606 20.8234C18.8134 21.1072 18.8152 21.542 18.5528 21.8282C18.2904 22.1143 17.8574 22.1501 17.5527 21.923L17.4932 21.8741L12.1689 16.9933C12.1021 16.932 12.0473 16.883 12 16.8409C11.9526 16.883 11.8979 16.932 11.831 16.9933L6.50679 21.8741Z" fill="currentColor"/>
</svg>
