<svg width="24" height="24" viewBox="0 0 24 24" fill="none" xmlns="http://www.w3.org/2000/svg">
<path fill-rule="evenodd" clip-rule="evenodd" d="M10.1003 5.39966C10.3932 5.69256 10.3932 6.16743 10.1003 6.46032L4.56066 12L10.1003 17.5397C10.3932 17.8326 10.3932 18.3074 10.1003 18.6003C9.80744 18.8932 9.33256 18.8932 9.03967 18.6003L2.96967 12.5303C2.82902 12.3897 2.75 12.1989 2.75 12C2.75 11.8011 2.82902 11.6103 2.96967 11.4697L9.03967 5.39966C9.33256 5.10677 9.80744 5.10677 10.1003 5.39966Z" fill="currentColor"/>
<path fill-rule="evenodd" clip-rule="evenodd" d="M2.91998 12C2.91998 11.5858 3.25577 11.25 3.66998 11.25H20.5C20.9142 11.25 21.25 11.5858 21.25 12C21.25 12.4142 20.9142 12.75 20.5 12.75H3.66998C3.25577 12.75 2.91998 12.4142 2.91998 12Z" fill="currentColor"/>
</svg>
