<svg width="25" height="24" viewBox="0 0 25 24" fill="none" xmlns="http://www.w3.org/2000/svg">
<path d="M14.1579 1H10.8595C10.5303 1.00027 10.2049 1.06936 9.90398 1.20281C9.6031 1.33627 9.33345 1.53115 9.11231 1.77495C8.89118 2.01875 8.72346 2.30609 8.61991 2.61852C8.51636 2.93096 8.47926 3.26159 8.51101 3.58921L9.42797 12.9748C9.46975 13.4127 9.6736 13.8192 9.99955 14.1145C10.3255 14.4099 10.75 14.5729 11.1899 14.5715H13.8275C14.7421 14.5715 15.4997 13.8847 15.5894 12.9736L16.5064 3.59039C16.5381 3.26272 16.501 2.93203 16.3975 2.61953C16.294 2.30703 16.1263 2.01962 15.9051 1.77573C15.684 1.53184 15.4144 1.33685 15.1135 1.20326C14.8126 1.06967 14.4871 1.00044 14.1579 1Z" fill="#0091FF"/>
<path d="M12.5093 23C14.4646 23 16.0497 21.4149 16.0497 19.4596C16.0497 17.5043 14.4646 15.9193 12.5093 15.9193C10.554 15.9193 8.9689 17.5043 8.9689 19.4596C8.9689 21.4149 10.554 23 12.5093 23Z" fill="#0091FF"/>
</svg>
