<svg width="24" height="24" viewBox="0 0 24 24" fill="none" xmlns="http://www.w3.org/2000/svg">
<path fill-rule="evenodd" clip-rule="evenodd" d="M12.0001 1.25C12.729 1.25 13.3994 1.43791 14.1407 1.76172C14.8597 2.07578 15.6935 2.54038 16.7423 3.12402L20.8839 5.42871C21.4603 5.74949 21.9431 6.15304 22.2745 6.69629C22.6074 7.24217 22.7501 7.86771 22.7501 8.56934V8.63477C22.7505 8.89022 22.7511 9.15004 22.6895 9.38184C22.5345 9.96493 22.1651 10.3405 21.713 10.542C21.3057 10.7234 20.8635 10.75 20.5313 10.75H3.46981C3.13757 10.75 2.6946 10.7235 2.28719 10.542C1.83508 10.3405 1.46561 9.9649 1.31063 9.38184C1.24905 9.15004 1.24962 8.89022 1.25008 8.63477V8.56934C1.25008 7.86777 1.39281 7.24214 1.72567 6.69629C2.05707 6.15304 2.53988 5.74949 3.11629 5.42871L7.25789 3.12402C8.30653 2.54044 9.1405 2.07577 9.85946 1.76172C10.6008 1.43791 11.2712 1.25003 12.0001 1.25ZM11.9962 6C11.4439 6 10.9962 6.44772 10.9962 7C10.9962 7.55228 11.4439 8 11.9962 8H12.005C12.5573 8 13.005 7.55228 13.005 7C13.005 6.44772 12.5573 6 12.005 6H11.9962Z" fill="currentColor"/>
<path d="M1.25 21.75C1.25 20.0931 2.92893 18.75 5 18.75H19C21.0711 18.75 22.75 20.0931 22.75 21.75C22.75 22.3023 22.1904 22.75 21.5 22.75H2.5C1.80964 22.75 1.25 22.3023 1.25 21.75Z" fill="currentColor"/>
<path d="M4.99996 17.5H8.35012C8.53868 17.5 8.63297 17.5 8.69154 17.4414C8.75012 17.3828 8.75012 17.2886 8.75012 17.1V12.4C8.75012 12.2114 8.75012 12.1172 8.69154 12.0586C8.63297 12 8.53868 12 8.35012 12H3.46957C3.4534 12 3.44532 12 3.44053 12.0002C3.33519 12.0053 3.25541 12.0851 3.25035 12.1904C3.25012 12.1952 3.25012 12.2021 3.25012 12.216V17.2383C3.25012 17.4944 3.25012 17.6224 3.32676 17.6825C3.40339 17.7426 3.5358 17.71 3.80061 17.6448C4.18484 17.5502 4.58654 17.5 4.99996 17.5Z" fill="currentColor"/>
<path d="M19 17.5C19.4135 17.5 19.8153 17.5502 20.1996 17.6448C20.4644 17.7101 20.5968 17.7427 20.6735 17.6826C20.7501 17.6226 20.7501 17.4945 20.7501 17.2384V12.2157C20.7501 12.2021 20.7501 12.1953 20.7499 12.1906C20.745 12.0851 20.665 12.0052 20.5595 12.0002C20.5548 12 20.5469 12 20.531 12H15.6501C15.4616 12 15.3673 12 15.3087 12.0586C15.2501 12.1172 15.2501 12.2114 15.2501 12.4V17.1C15.2501 17.2886 15.2501 17.3828 15.3087 17.4414C15.3673 17.5 15.4616 17.5 15.6501 17.5H19Z" fill="currentColor"/>
</svg>
