<svg width="24" height="24" viewBox="0 0 24 24" fill="none" xmlns="http://www.w3.org/2000/svg">
<path d="M12 17.4844C12.4135 17.4844 12.7679 17.6009 13.0928 17.7539C13.3965 17.897 13.7363 18.1038 14.1055 18.3262C14.4897 18.5575 14.9626 18.9102 15.417 19.2461C15.8933 19.5982 16.3891 19.9611 16.8818 20.2725C17.3815 20.5882 17.8259 20.8171 18.1934 20.9287C18.5693 21.0428 18.7164 20.9908 18.7559 20.9697C18.7609 20.967 18.7697 20.9672 18.793 20.9238C18.8267 20.8611 18.8757 20.7304 18.915 20.4746C18.9972 19.9408 19 19.1685 19 17.9805V9.70801C19 7.86207 18.9978 6.58147 18.8633 5.61719C18.7333 4.6856 18.4973 4.19793 18.1348 3.84863C17.767 3.49435 17.2456 3.2604 16.2607 3.13281C15.2507 3.00198 13.9129 3 12 3C10.0871 3 8.74932 3.00198 7.73926 3.13281C6.75439 3.2604 6.23299 3.49435 5.86524 3.84863C5.50269 4.19793 5.26673 4.6856 5.13672 5.61719C5.00217 6.58147 5.00001 7.86207 5.00001 9.70801V17.9805C5.00001 19.1685 5.00285 19.9408 5.08497 20.4746C5.12432 20.7304 5.1733 20.8611 5.20704 20.9238C5.23036 20.9672 5.23907 20.967 5.24415 20.9697C5.28361 20.9908 5.43067 21.0428 5.80665 20.9287C6.17413 20.8171 6.61849 20.5882 7.11817 20.2725C7.61094 19.9611 8.10668 19.5982 8.58301 19.2461C9.03744 18.9102 9.51036 18.5575 9.89454 18.3262C10.2638 18.1038 10.6035 17.897 10.9072 17.7539C11.2321 17.6009 11.5865 17.4844 12 17.4844ZM21 17.9805C21 19.0981 21.0027 20.0561 20.8916 20.7783C20.7784 21.5142 20.5041 22.304 19.6982 22.7344C18.9895 23.1128 18.2248 23.0277 17.6123 22.8418C16.991 22.6532 16.3692 22.315 15.8135 21.9639C15.2507 21.6082 14.7003 21.2032 14.2285 20.8545C13.735 20.4897 13.3565 20.2091 13.0742 20.0391C12.6704 19.7959 12.4305 19.6531 12.2402 19.5635C12.0709 19.4837 12.0167 19.4844 12 19.4844C11.9833 19.4844 11.9291 19.4837 11.7598 19.5635C11.5695 19.6531 11.3296 19.7959 10.9258 20.0391C10.6435 20.2091 10.265 20.4897 9.77149 20.8545C9.29972 21.2032 8.74931 21.6082 8.18653 21.9639C7.63082 22.315 7.00897 22.6532 6.3877 22.8418C5.77519 23.0277 5.01052 23.1128 4.30176 22.7344C3.49593 22.304 3.2216 21.5142 3.1084 20.7783C2.99733 20.0561 3.00001 19.0981 3.00001 17.9805V9.70801C3.00001 7.92069 2.99794 6.47538 3.15626 5.34082C3.31915 4.17354 3.66852 3.18765 4.47754 2.4082C5.28133 1.63385 6.28896 1.30401 7.48243 1.14942C8.65088 0.998064 10.1417 1 12 1C13.8584 1 15.3491 0.998064 16.5176 1.14942C17.711 1.30401 18.7187 1.63385 19.5225 2.4082C20.3315 3.18765 20.6809 4.17354 20.8438 5.34082C21.0021 6.47538 21 7.92069 21 9.70801V17.9805Z" fill="currentColor"/>
</svg>
