<svg width="24" height="24" viewBox="0 0 24 24" fill="none" xmlns="http://www.w3.org/2000/svg">
<path fill-rule="evenodd" clip-rule="evenodd" d="M17.0001 3C18.1199 3 19.1911 3.12292 20.168 3.34668L20.2257 3.35938C20.7724 3.48428 21.2181 3.58657 21.7061 3.97266C21.9982 4.20374 22.3234 4.61101 22.4835 4.94727C22.7516 5.51074 22.7507 6.06861 22.7501 6.75879L22.7501 17.6357C22.7501 19.2028 21.1595 20.1122 19.8331 19.8086C18.9706 19.6111 18.0121 19.5 17.0001 19.5C15.1745 19.5 13.5353 19.8609 12.3175 20.4297C10.8703 21.1056 9.00849 21.5 7.00007 21.5C5.88036 21.5 4.80991 21.377 3.83308 21.1533L3.77448 21.1406C3.22764 21.0157 2.78213 20.9135 2.29401 20.5273C2.00197 20.2963 1.67672 19.889 1.51667 19.5527C1.24853 18.9893 1.2494 18.4314 1.25007 17.7412L1.25007 6.86426C1.25007 5.29707 2.84159 4.38759 4.16804 4.69141C5.03035 4.88889 5.98825 4.99999 7.00007 5C8.82569 5 10.4648 4.6391 11.6827 4.07031C13.1299 3.39441 14.9916 3.00002 17.0001 3ZM12.0001 9.25C10.3432 9.25 9.00007 10.5931 9.00007 12.25C9.00007 13.9069 10.3432 15.25 12.0001 15.25C13.6569 15.25 15.0001 13.9069 15.0001 12.25C15.0001 10.5931 13.6569 9.25 12.0001 9.25ZM5.50007 12.25C4.94778 12.25 4.50007 12.6977 4.50007 13.25V13.2588C4.50007 13.8111 4.94778 14.2588 5.50007 14.2588C6.05235 14.2588 6.50007 13.8111 6.50007 13.2588V13.25C6.50007 12.6977 6.05235 12.25 5.50007 12.25ZM18.5001 10.2422C17.9478 10.2422 17.5001 10.6899 17.5001 11.2422V11.251C17.5001 11.8033 17.9478 12.251 18.5001 12.251C19.0524 12.251 19.5001 11.8033 19.5001 11.251V11.2422C19.5001 10.6899 19.0524 10.2422 18.5001 10.2422Z" fill="currentColor"/>
</svg>
