<svg width="24" height="24" viewBox="0 0 24 24" fill="none" xmlns="http://www.w3.org/2000/svg">
<path d="M19.6165 12.0389V20.4367C19.6165 21.3155 19.0658 21.9991 18.3627 21.9991H16.648C15.9449 21.9991 15.3942 21.3116 15.3942 20.4367V12.0389C15.3942 11.1601 15.9449 10.4765 16.648 10.4765H18.3627C19.0619 10.4765 19.6165 11.164 19.6165 12.0389ZM19.6439 7.1135C19.5267 7.19553 19.3744 7.19943 19.2494 7.12522L18.0776 6.42215C16.148 9.61722 13.4256 12.6248 8.16819 12.6248C7.0589 12.6248 5.83633 12.492 4.48487 12.1951C4.28958 12.1522 4.16458 11.9608 4.20364 11.7616C4.2427 11.5819 4.40675 11.4608 4.59033 11.4765C4.91843 11.5038 12.5429 12.0155 15.7457 4.96523L14.5466 4.38324C14.3669 4.29731 14.2888 4.07858 14.3747 3.8989C14.4138 3.81688 14.4802 3.75438 14.5622 3.71923L18.5424 2.02795C18.726 1.94983 18.9408 2.03576 19.0189 2.21934C19.0306 2.24669 19.0385 2.27403 19.0424 2.30137L19.7962 6.75025C19.8235 6.89086 19.7611 7.03538 19.6439 7.1135ZM14.113 15.1246V20.4367C14.113 21.3155 13.5623 21.9991 12.8592 21.9991H11.1406C10.4375 21.9991 9.8868 21.3116 9.8868 20.4367V15.1246C9.8868 14.2458 10.4375 13.5622 11.1406 13.5622H12.8553C13.5623 13.5583 14.113 14.2458 14.113 15.1246ZM8.73064 17.6947V20.4367C8.73064 21.3116 8.1799 21.9991 7.47683 21.9991H5.75821C5.05514 21.9991 4.5044 21.3116 4.5044 20.4367V17.6947C4.5044 16.8159 5.05514 16.1323 5.75821 16.1323H7.47293C8.1799 16.1284 8.73064 16.8159 8.73064 17.6947Z" fill="currentColor"/>
</svg>
