<svg width="24" height="24" viewBox="0 0 24 24" fill="none" xmlns="http://www.w3.org/2000/svg">
<path d="M1.66344 18.4433C1.66344 18.4433 2.2401 17.8267 2.8781 17.884C3.51544 17.942 14.4741 20.1487 14.4741 20.1487C14.4741 20.1487 14.7208 20.9873 14.6494 21.3847C14.5701 21.8327 1.49077 18.6993 1.66344 18.4433Z" fill="#66BDFF"/>
<path d="M1.66349 18.4433C6.03549 19.0213 10.3608 20.034 14.6502 21.3846C14.5775 21.8089 14.5775 22.2424 14.6502 22.6666C12.7902 22.6826 3.72349 20.6166 1.53949 20.002C1.47844 19.9857 1.42477 19.949 1.38733 19.8981C1.34988 19.8472 1.33089 19.7851 1.33349 19.722C1.35082 19.3293 1.44682 18.74 1.66349 18.4433Z" fill="#0091FF"/>
<path d="M14.4741 20.1487C14.4741 20.1487 14.7208 20.9873 14.6495 21.3847L14.8495 21.6467L22.3348 18.1247L22.3495 17.928C22.3495 17.928 21.5135 17.3207 20.4335 17.1713C19.3535 17.022 14.4741 20.1487 14.4741 20.1487Z" fill="#66BDFF"/>
<path d="M14.6495 22.6666C14.5768 22.2424 14.5768 21.8089 14.6495 21.3846C17.1911 20.1774 19.7583 19.0249 22.3495 17.928C22.6028 18.1413 22.6988 18.7186 22.6575 19.1226C22.5335 19.7506 15.6068 22.6666 14.6495 22.6666Z" fill="#0074CC"/>
<path d="M14.6428 20.6033C14.1561 20.4633 13.6695 20.33 13.1828 20.1967C10.0628 19.3567 7.02946 18.7567 4.07612 18.35C3.60946 18.29 3.14946 18.23 2.68946 18.1767C2.61612 18.17 2.56279 18.0967 2.58279 18.03C2.74279 17.43 2.87612 16.8167 2.99612 16.19C3.16279 15.2767 3.28279 14.3433 3.33612 13.37L5.44279 13.67H5.44946L11.9695 14.5967L12.1561 14.6233L14.1561 14.91C14.1561 14.91 15.9161 20.0233 14.6428 20.6033Z" fill="#FFD67A"/>
<path d="M11.9695 14.5967C11.0568 17.748 5.67882 18.6833 2.99615 16.19C3.16282 15.2767 3.28282 14.3433 3.33615 13.37L5.44282 13.67H5.44949L11.9695 14.5967Z" fill="#FFDE9B"/>
<path d="M13.1828 20.1967C10.0628 19.3566 7.02948 18.7566 4.07615 18.35C3.94281 16.1633 4.74281 13.79 4.74281 13.79L5.44281 13.67H5.44948L12.1561 14.6233C12.5361 15.2366 12.7761 16.09 12.9228 16.9633C12.9695 17.19 13.0028 17.4167 13.0228 17.6433C13.1495 18.6567 13.1761 19.63 13.1828 20.1967Z" fill="#F8F9FE"/>
<path d="M13.0228 17.604C13.0028 17.3773 12.9694 17.1507 12.9228 16.924C12.7828 16.0933 12.5554 15.2873 12.2068 14.6827C10.5561 18.0173 6.41276 18.236 4.13943 16.626C4.08543 17.174 4.04276 17.746 4.0761 18.3107C7.02943 18.7173 10.0628 19.3173 13.1828 20.1573C13.1761 19.5907 13.1494 18.6173 13.0228 17.604Z" fill="#E2F1FF"/>
<path d="M13.0228 17.6433C11.9161 17.5033 10.7694 17.3367 9.68943 17.1633C6.8961 16.7033 4.5561 16.21 4.52277 16.2033L4.6561 15.55C4.6961 15.5633 7.48943 16.15 10.6094 16.63C11.3761 16.75 12.1561 16.8633 12.9228 16.9633C12.9694 17.19 13.0028 17.4167 13.0228 17.6433Z" fill="#E5F4FF"/>
<path d="M13.0228 17.6433C11.9161 17.5033 10.7695 17.3367 9.68945 17.1633C10.0228 17.0167 10.3295 16.8367 10.6095 16.63C11.3761 16.75 12.1561 16.8633 12.9228 16.9633C12.9695 17.19 13.0028 17.4167 13.0228 17.6433Z" fill="#CCE9FF"/>
<path d="M5.36877 17.7253C4.82943 17.9153 4.34543 18.192 4.07543 18.35C3.94077 16.1687 4.7421 13.7907 4.7421 13.7907C4.7421 13.7907 5.0121 13.7433 5.4401 13.672H5.4481L5.8681 13.7353C5.6381 14.568 5.27343 16.194 5.3681 17.7253H5.36877Z" fill="#FFA93D"/>
<path d="M13.1848 20.2C9.78411 19.8187 6.81678 19.1113 4.07878 18.352C4.07611 18.3547 4.07611 18.3587 4.07611 18.35C4.34544 18.1913 4.83278 17.916 5.37211 17.7253H5.38011C7.91011 18.074 10.4961 18.566 13.1534 19.232C13.1768 19.6133 13.1848 19.946 13.1848 20.2Z" fill="#66BDFF"/>
<path d="M21.2368 17.6667C21.2458 17.7061 21.2414 17.7473 21.2242 17.7839C21.2071 17.8205 21.1782 17.8504 21.1421 17.8687C20.8507 18.0173 20.5573 18.1622 20.2621 18.3033C19.0415 18.8827 17.6748 19.4547 16.2228 20.01C15.7075 20.208 15.1828 20.4053 14.6428 20.6033C14.6428 20.6033 14.0815 16.686 14.1528 14.91L15.4615 14.5767L19.1341 13.6567L20.2681 13.37L21.2368 17.6667Z" fill="#FFA93D"/>
<path d="M20.2628 18.3033C19.0361 18.8833 17.6761 19.4567 16.2228 20.01C16.0894 19.6167 15.8094 18.6967 15.6094 17.6167C15.5761 17.3967 15.5361 17.17 15.5094 16.9367C15.4028 16.15 15.3628 15.3233 15.4628 14.5767L19.1361 13.6567C19.4028 14.33 20.0561 16.13 20.2628 18.3033Z" fill="#CCE9FF"/>
<path d="M19.7561 16.1966C19.7361 16.2033 18.7228 16.47 17.4895 16.8966C16.8895 17.1033 16.2295 17.35 15.6095 17.6166C15.5761 17.3966 15.5361 17.17 15.5095 16.9366C16.2628 16.6166 17.0561 16.33 17.7361 16.11C18.7561 15.7766 19.5295 15.57 19.5895 15.5566L19.7561 16.1966Z" fill="#66BDFF"/>
<path d="M20.2628 18.3034L20.2608 18.306C19.1295 18.9274 17.7768 19.5034 16.2228 20.01C16.1675 19.8354 16.0721 19.55 15.9768 19.1927C17.0004 18.7942 18.011 18.3629 19.0068 17.8994C19.0448 17.8801 19.0784 17.8534 19.1057 17.8207C19.133 17.788 19.1533 17.7501 19.1655 17.7094C19.7448 17.9234 20.1121 18.1927 20.2628 18.3034Z" fill="#66BDFF"/>
<path d="M19.1654 17.7093C19.1823 17.6694 19.1878 17.6256 19.1814 17.5827C19.0148 16.036 18.6348 14.7027 18.3328 13.8547L19.1341 13.656C19.4034 14.3307 20.0794 16.0733 20.2628 18.3033C19.9277 18.0533 19.5581 17.8534 19.1654 17.71V17.7093Z" fill="#F88F24"/>
<path d="M9.36946 3.04333C9.36946 3.04333 14.3041 2.62333 15.9228 3.43266C17.5415 4.24199 14.1061 6.16466 14.2281 8.378C14.3501 10.5913 15.0368 11.6747 12.6715 12.346C10.3061 13.0173 3.08679 10.0567 3.08679 10.0567C4.33546 6.68733 4.89679 2.47866 9.36946 3.04333Z" fill="#F8F9FE"/>
<path d="M15.9221 3.4333C15.4235 3.1833 14.6088 3.0513 13.7221 2.98663C13.5288 5.9533 11.5215 8.77797 7.69545 8.77797C6.13945 8.77797 4.88812 8.30997 3.93279 7.55863C3.64812 8.38797 3.38679 9.24597 3.08612 10.0566C3.08612 10.0566 10.3061 13.0173 12.6715 12.346C15.0368 11.6746 14.3501 10.5906 14.2281 8.37797C14.1061 6.16463 17.5401 4.24197 15.9221 3.4333Z" fill="#E2F1FF"/>
<path d="M16.4428 5.65665L16.2028 6.27665C15.2053 5.89303 14.1772 5.59419 13.1295 5.38331C8.34281 4.38998 4.18281 5.28998 4.13614 5.30331L3.98947 4.64998C4.20281 4.60331 8.43614 3.68998 13.3761 4.74998C14.1161 4.90331 14.8761 5.10998 15.6428 5.36998C15.9095 5.45665 16.1761 5.55665 16.4428 5.65665ZM15.4428 7.94331L15.2695 8.58998C13.918 8.22767 12.5438 7.95596 11.1561 7.77665C6.8028 7.20998 3.18281 7.55665 3.12947 7.55665L3.06281 6.89665C3.11614 6.88998 7.14947 6.50331 11.8628 7.20331C12.6628 7.31665 13.4828 7.46998 14.3095 7.65665C14.6895 7.74331 15.0628 7.83665 15.4428 7.94331Z" fill="#E5F4FF"/>
<path d="M11.8628 7.20333C12.6628 7.31667 13.4828 7.47 14.3095 7.65667C14.2495 7.87667 14.2161 8.10333 14.2295 8.33C13.1895 8.08333 12.1495 7.91 11.1561 7.77667C11.4095 7.60333 11.6495 7.41 11.8628 7.20333ZM15.6428 5.37C15.5095 5.55 15.3628 5.73667 15.2228 5.93C14.5228 5.70333 13.8228 5.52333 13.1295 5.38333C13.2295 5.17667 13.3095 4.97 13.3761 4.75C14.1161 4.90333 14.8761 5.11 15.6428 5.37ZM14.6261 11.3547C8.72614 9.61267 2.57481 10.088 2.51281 10.092L2.45947 9.428C2.52147 9.422 8.79814 8.94 14.8148 10.7147L14.6261 11.3547Z" fill="#CCE9FF"/>
<path d="M2.75677 11.51C2.70343 12.106 2.73543 12.6847 2.8801 13.2407C2.9121 13.3627 3.01477 13.4473 3.13277 13.4933C6.79143 14.906 10.7714 15.4787 14.4741 15.2333V12.8973L2.75677 11.51Z" fill="#66BDFF"/>
<path d="M14.4741 12.8973V15.2333C16.6541 14.6933 18.7195 14.076 20.6521 13.372C20.7149 13.3492 20.7702 13.3095 20.8118 13.2572C20.8535 13.205 20.8799 13.1423 20.8881 13.076C20.9515 12.556 20.9695 12.034 20.9448 11.51L14.4741 12.8973Z" fill="#0074CC"/>
<path d="M10.7134 10.8467C11.1581 12.0327 10.5601 13.0013 9.36544 13.0013C8.17877 13.0013 6.85677 12.0327 6.4121 10.846C5.96744 9.65934 6.56544 8.69135 7.75211 8.69135C8.94744 8.69135 10.2694 9.65934 10.7141 10.846L10.7134 10.8467Z" fill="#FFA93D"/>
<path d="M10.8161 11.1933C10.8161 11.1933 11.0961 11.882 12.4561 11.6366C13.8161 11.3913 9.79078 13.1066 9.55011 12.0053C10.5948 11.6093 10.8161 11.1933 10.8161 11.1933Z" fill="#F88F24"/>
<path d="M20.8294 2.37L16.5961 5.05L15.4161 13.1567C10.8161 14.2767 6.48275 13.79 2.40942 11.6233C2.06942 11.45 1.84275 11.1033 1.80942 10.7233C1.70942 9.61666 1.69609 8.59 1.77609 7.65666C2.20275 2.24333 5.37609 -0.116671 8.64275 2.25C8.29609 2.03 7.86942 1.89 7.37609 1.89C4.46942 1.89 3.96942 6.40333 3.90275 8.71C3.88275 9.50333 3.90942 10.03 3.90942 10.03C6.60275 11.77 9.18942 12.4967 12.4561 11.6367C12.7294 11.5633 12.9294 11.3167 12.9494 11.03C13.0294 9.67 13.3694 5.71 14.7028 3.66333C17.4828 -0.636671 20.8294 2.37 20.8294 2.37Z" fill="#FFD67A"/>
<path d="M1.97211 6.23331C2.45877 6.75464 3.16611 7.20331 3.96077 7.65331C4.15277 5.24931 4.86744 1.88997 7.37611 1.88997C7.86944 1.88997 8.29611 2.02997 8.64277 2.24997C5.68011 0.103305 2.80277 1.85397 1.97211 6.23331Z" fill="#FFDE9B"/>
<path d="M9.02943 11.8566V11.9833C7.1761 11.89 5.40943 11.33 3.78943 10.3366C3.74372 10.3108 3.70307 10.277 3.66943 10.2366C4.12277 10.21 4.5361 10.1366 4.7761 10.0833C4.8361 10.2166 4.9361 10.33 5.06943 10.41C6.30943 11.1566 7.64943 11.6366 9.02943 11.8566Z" fill="#F88F24"/>
<path d="M4.68942 9.70335C4.68942 9.83668 4.71609 9.96335 4.77609 10.0833C4.53609 10.1367 4.12276 10.21 3.66943 10.2367C3.6198 10.1843 3.58124 10.1225 3.55604 10.055C3.53084 9.98737 3.51952 9.9154 3.52276 9.84335C3.56276 8.32335 3.92942 1.89001 7.37609 1.89001C7.86942 1.89001 8.29609 2.03001 8.64276 2.25001C8.90942 2.45001 9.18942 2.75001 9.36942 3.04335C5.28276 2.99001 4.74276 7.96335 4.68942 9.70335ZM21.2821 11.638L15.5694 13.1347C15.1894 13.2347 14.8281 12.956 14.8428 12.5647C14.9328 10.006 15.1081 2.62935 19.5634 2.02468C22.7074 1.59801 22.2101 8.76735 21.7368 11.1233C21.6881 11.368 21.5234 11.5747 21.2821 11.638Z" fill="#FFA93D"/>
<path d="M20.8561 10.6166C20.8361 10.7766 20.7228 10.9033 20.5695 10.9366L16.9428 11.7766C16.7028 11.83 16.4761 11.6433 16.4828 11.3966C16.4961 11.0433 16.5361 10.5166 16.6228 9.90331C16.6495 9.66997 16.6895 9.42331 16.7361 9.16997C16.8361 8.59664 16.9761 7.98331 17.1561 7.37664C17.2361 7.10997 17.3295 6.84331 17.4295 6.58997C17.9428 5.24331 18.7161 4.06331 19.8628 3.68331C21.2628 3.21664 21.0361 9.26997 20.8561 10.6166Z" fill="#CCE9FF"/>
<path d="M20.5628 6.2833L17.1561 7.37663C17.2361 7.10996 17.3295 6.8433 17.4295 6.58996L20.3561 5.64996L20.5628 6.2833ZM20.5628 8.6433L16.6228 9.9033C16.6495 9.66996 16.6895 9.4233 16.7361 9.16996L20.3561 8.00996L20.5628 8.6433Z" fill="#66BDFF"/>
<path d="M20.7335 10.8533C20.6175 10.9693 20.8228 10.8626 16.9448 11.7766C16.8885 11.789 16.8302 11.7884 16.7742 11.7749C16.7182 11.7613 16.666 11.7352 16.6216 11.6984C16.5773 11.6616 16.5419 11.6152 16.5182 11.5627C16.4945 11.5101 16.483 11.4529 16.4848 11.3953C16.4848 11.348 16.4848 11.2926 16.4928 11.2446L19.3641 10.5866C19.4104 10.5777 19.4541 10.5589 19.4924 10.5315C19.5307 10.5041 19.5627 10.4688 19.5861 10.428L20.7335 10.8533Z" fill="#DD8536"/>
<path d="M20.8554 10.618C20.8474 10.7133 20.8048 10.806 20.7334 10.8533L19.5861 10.428C19.6199 10.3811 19.6417 10.3266 19.6494 10.2693C19.7921 9.22268 19.9494 5.39401 19.3774 3.90268C19.5281 3.80735 19.6908 3.73001 19.8654 3.67468C21.2614 3.20668 21.0374 9.27001 20.8554 10.618Z" fill="#F88F24"/>
<path opacity="0.8" d="M3.7768 5.05868C3.5388 5.90335 3.5188 6.60335 3.18014 6.52535C2.84547 6.44935 2.75414 5.69401 2.99214 4.84935C3.2308 4.00401 3.7288 3.49935 4.06414 3.57601C4.40214 3.65268 4.0148 4.21335 3.7768 5.05868ZM4.6888 2.50201C4.8268 2.60601 4.82014 2.84535 4.67947 3.03601C4.53947 3.22668 4.31614 3.29735 4.17814 3.19401C4.04347 3.09201 4.04747 2.85535 4.18814 2.66468C4.32814 2.47401 4.55414 2.40001 4.6888 2.50201Z" fill="white"/>
<path d="M15.3614 7.98267C15.3657 7.96674 15.3744 7.95236 15.3866 7.94122C15.3988 7.93007 15.4138 7.92263 15.4301 7.91976C15.4463 7.91689 15.463 7.91871 15.4783 7.92502C15.4935 7.93132 15.5066 7.94184 15.5161 7.95534C15.7328 8.26667 15.9161 8.518 15.9381 8.504C15.9581 8.49067 15.8094 8.21867 15.6208 7.89067C15.6125 7.87639 15.6086 7.86006 15.6093 7.8436C15.61 7.82713 15.6154 7.81121 15.6248 7.7977C15.6343 7.7842 15.6474 7.77366 15.6626 7.76734C15.6778 7.76102 15.6945 7.75917 15.7108 7.762C16.4481 7.89534 17.1221 8.006 17.1328 7.96C17.1421 7.91667 16.4828 7.73334 15.7581 7.54667C15.7424 7.54222 15.7282 7.53342 15.7173 7.52128C15.7064 7.50915 15.6991 7.49416 15.6963 7.47806C15.6935 7.46197 15.6953 7.44541 15.7016 7.4303C15.7078 7.41519 15.7181 7.40215 15.7314 7.39267C16.0414 7.17534 16.2934 6.99067 16.2794 6.96867C16.2668 6.94867 15.9934 7.09934 15.6648 7.29001C15.6506 7.29834 15.6342 7.30241 15.6178 7.30172C15.6013 7.30104 15.5853 7.29563 15.5719 7.28615C15.5584 7.27666 15.5479 7.2635 15.5417 7.24823C15.5354 7.23295 15.5338 7.21621 15.5368 7.20001C15.6741 6.46401 15.7881 5.788 15.7421 5.778C15.6988 5.768 15.5114 6.43001 15.3221 7.154C15.318 7.17015 15.3094 7.18477 15.2972 7.19613C15.285 7.20748 15.2699 7.21509 15.2535 7.21805C15.2371 7.221 15.2202 7.21917 15.2048 7.21278C15.1894 7.20639 15.1762 7.1957 15.1668 7.182C14.9514 6.87267 14.7688 6.62201 14.7488 6.63401C14.7268 6.64801 14.8754 6.92201 15.0648 7.24734C15.0728 7.2616 15.0767 7.27785 15.0758 7.29421C15.075 7.31056 15.0696 7.32635 15.0602 7.33974C15.0508 7.35314 15.0377 7.36359 15.0226 7.36989C15.0075 7.37619 14.9909 7.37808 14.9748 7.37534C14.2394 7.242 13.5621 7.13334 13.5521 7.17734C13.5421 7.22267 14.2034 7.40534 14.9274 7.59067C14.9433 7.59503 14.9576 7.60381 14.9687 7.61601C14.9798 7.6282 14.9871 7.6433 14.9899 7.65953C14.9927 7.67576 14.9909 7.69245 14.9845 7.70765C14.9782 7.72284 14.9676 7.73592 14.9541 7.74534C14.6434 7.96334 14.3908 8.148 14.4034 8.168C14.4168 8.19 14.6914 8.03934 15.0174 7.84801C15.0316 7.83954 15.048 7.83534 15.0645 7.8359C15.081 7.83647 15.097 7.84179 15.1106 7.85121C15.1241 7.86064 15.1347 7.87377 15.141 7.88904C15.1473 7.90432 15.1491 7.92108 15.1461 7.93734C15.0094 8.67267 14.8961 9.352 14.9401 9.36134C14.9854 9.37134 15.1721 8.708 15.3614 7.98267Z" fill="white"/>
<path d="M9.9068 10.8467C9.9068 12.0327 8.94747 13.0013 7.75214 13.0013C6.56547 13.0013 5.60547 12.0327 5.60547 10.846C5.60547 9.65935 6.56547 8.69135 7.75214 8.69135C8.03517 8.69117 8.31547 8.74678 8.577 8.85499C8.83853 8.9632 9.07617 9.1219 9.27634 9.322C9.47651 9.52211 9.63528 9.7597 9.74357 10.0212C9.85186 10.2827 9.90756 10.563 9.90747 10.846L9.9068 10.8467Z" fill="#FFD67A"/>
<path opacity="0.8" d="M11.3414 12.3226C12.0948 12.188 12.6521 11.938 12.7201 12.2326C12.7874 12.5246 12.2294 12.8833 11.4754 13.018C10.7221 13.1526 10.1354 12.954 10.0681 12.662C10.0001 12.3666 10.5874 12.4573 11.3414 12.3226ZM8.98744 12.58C9.01678 12.432 9.20744 12.346 9.41011 12.384C9.61344 12.4213 9.75411 12.5693 9.72478 12.7173C9.69611 12.862 9.50944 12.9486 9.30611 12.9106C9.10278 12.8733 8.95944 12.724 8.98744 12.58Z" fill="white"/>
<path d="M8.56946 10.412C8.55525 10.5406 8.5122 10.6643 8.44352 10.774C8.37484 10.8837 8.2823 10.9764 8.1728 11.0453C8.1728 11.0453 8.22813 11.914 8.18413 12.212C8.17946 12.244 8.12413 12.3927 7.9268 12.396C7.86013 12.392 7.31146 12.4173 7.13946 12.3347C6.93146 12.258 6.88813 12.0453 7.2048 10.9867C7.10541 10.9007 7.02829 10.7919 6.98 10.6697C6.93172 10.5475 6.91369 10.4154 6.92746 10.2847C6.96746 9.85733 7.32213 9.53132 7.7488 9.52466L7.82213 9.53066C8.2628 9.55066 8.6048 9.93933 8.5688 10.412H8.56946Z" fill="#F88F24"/>
<path d="M7.97276 10.9227L7.98276 12.134C7.98293 12.1423 7.98147 12.1505 7.97844 12.1582C7.97541 12.1659 7.97088 12.173 7.96511 12.1789C7.95935 12.1849 7.95246 12.1896 7.94484 12.1929C7.93723 12.1962 7.92904 12.1979 7.92076 12.198C7.76276 12.2027 7.34676 12.206 7.21142 12.152C7.08809 12.1033 7.30942 11.3293 7.44142 10.9013C7.33518 10.8453 7.2482 10.7587 7.19175 10.6526C7.13529 10.5466 7.11195 10.4261 7.12476 10.3067C7.1415 10.1406 7.22186 9.98748 7.34899 9.87936C7.47613 9.77124 7.64017 9.71652 7.80676 9.72666C8.15009 9.74999 8.40276 10.0467 8.36809 10.3913C8.35552 10.5071 8.31224 10.6174 8.24274 10.7108C8.17323 10.8042 8.08002 10.8774 7.97276 10.9227Z" fill="#31445B"/>
<path d="M7.41615 10.4367C7.40124 10.5563 7.42358 10.6777 7.48013 10.7842C7.53667 10.8908 7.62467 10.9773 7.73215 11.032C7.62415 11.3807 7.45349 11.9653 7.46415 12.192C7.37794 12.1903 7.29232 12.1773 7.20949 12.1533C7.08882 12.102 7.31015 11.332 7.44349 10.9033C7.33601 10.8486 7.24801 10.7621 7.19146 10.6556C7.13492 10.549 7.11258 10.4277 7.12749 10.308C7.14341 10.142 7.22283 9.98861 7.34916 9.87979C7.4755 9.77097 7.63898 9.71515 7.80549 9.72399C7.93882 9.73533 8.07549 9.79266 8.17015 9.87733C7.89815 9.79133 7.45015 10.028 7.41682 10.4373L7.41615 10.4367Z" fill="#4C5C75"/>
</svg>
