<svg width="24" height="24" viewBox="0 0 24 24" fill="none" xmlns="http://www.w3.org/2000/svg">
<path fill-rule="evenodd" clip-rule="evenodd" d="M3.54969 8.41967C3.84258 8.12677 4.31745 8.12677 4.61035 8.41967L11.1303 14.9397C11.6075 15.4168 12.3926 15.4168 12.8697 14.9397L19.3897 8.41967C19.6826 8.12677 20.1575 8.12677 20.4503 8.41967C20.7432 8.71256 20.7432 9.18743 20.4503 9.48033L13.9303 16.0003C12.8675 17.0632 11.1326 17.0632 10.0697 16.0003L3.54969 9.48033C3.25679 9.18743 3.25679 8.71256 3.54969 8.41967Z" fill="currentColor"/>
<path d="M19.2128 8.24297C19.6033 7.85247 20.2363 7.85252 20.6269 8.24297C21.0174 8.63349 21.0174 9.2665 20.6269 9.65703L14.1073 16.1775C12.9468 17.338 11.053 17.338 9.8925 16.1775L3.37297 9.65703C2.98245 9.2665 2.98245 8.63349 3.37297 8.24297C3.7635 7.85244 4.39651 7.85244 4.78703 8.24297L11.3075 14.7625C11.687 15.142 12.3138 15.142 12.6933 14.7625L19.2128 8.24297ZM20.2734 8.59648C20.0781 8.4013 19.7616 8.40125 19.5663 8.59648L13.0468 15.116C12.4721 15.6907 11.5288 15.6907 10.954 15.116L4.43352 8.59648C4.23826 8.40122 3.92175 8.40122 3.72649 8.59648C3.53122 8.79174 3.53122 9.10825 3.72649 9.30351L10.246 15.824C11.2113 16.7892 12.7886 16.7892 13.7538 15.824L20.2734 9.30351C20.4686 9.10825 20.4686 8.79174 20.2734 8.59648Z" fill="currentColor"/>
</svg>
