<svg width="24" height="24" viewBox="0 0 24 24" fill="none" xmlns="http://www.w3.org/2000/svg">
<path fill-rule="evenodd" clip-rule="evenodd" d="M10.0697 7.99967C11.1326 6.93678 12.8674 6.93678 13.9303 7.99967L20.4503 14.5197C20.7432 14.8126 20.7432 15.2874 20.4503 15.5803C20.1574 15.8732 19.6825 15.8732 19.3897 15.5803L12.8697 9.06033C12.3925 8.58322 11.6074 8.58322 11.1303 9.06033L4.61032 15.5803C4.31742 15.8732 3.84255 15.8732 3.54966 15.5803C3.25676 15.2874 3.25676 14.8126 3.54966 14.5197L10.0697 7.99967Z" fill="currentColor"/>
<path d="M9.89249 7.82262C11.053 6.66211 12.9468 6.66212 14.1073 7.82262L20.6269 14.3431C21.0174 14.7337 21.0174 15.3667 20.6269 15.7572C20.2363 16.1476 19.6033 16.1477 19.2128 15.7572L12.6933 9.23669C12.3139 8.85737 11.687 8.85765 11.3075 9.23669L4.78703 15.7572C4.39652 16.1476 3.76347 16.1476 3.37296 15.7572C2.98246 15.3667 2.98252 14.7337 3.37296 14.3431L9.89249 7.82262ZM13.7538 8.17614C12.7886 7.2109 11.2113 7.21088 10.246 8.17614L3.72648 14.6966C3.53129 14.8919 3.53124 15.2084 3.72648 15.4037C3.92172 15.5988 4.23827 15.5988 4.43351 15.4037L10.954 8.88317C11.5288 8.30887 12.4722 8.3086 13.0468 8.88317L19.5663 15.4037C19.7615 15.5989 20.0781 15.5988 20.2734 15.4037C20.4686 15.2084 20.4686 14.8919 20.2734 14.6966L13.7538 8.17614Z" fill="currentColor"/>
</svg>
