<svg width="24" height="24" viewBox="0 0 24 24" fill="none" xmlns="http://www.w3.org/2000/svg">
<path fill-rule="evenodd" clip-rule="evenodd" d="M15.5303 3.54967C15.8232 3.84256 15.8232 4.31744 15.5303 4.61033L9.01033 11.1303C8.53322 11.6074 8.53322 12.3926 9.01033 12.8697L15.5303 19.3897C15.8232 19.6826 15.8232 20.1574 15.5303 20.4503C15.2374 20.7432 14.7626 20.7432 14.4697 20.4503L7.94967 13.9303C6.88677 12.8674 6.88677 11.1326 7.94967 10.0697L14.4697 3.54967C14.7626 3.25678 15.2374 3.25678 15.5303 3.54967Z" fill="currentColor"/>
<path d="M14.2931 3.37298C14.6836 2.98253 15.3167 2.98248 15.7072 3.37298C16.0976 3.76348 16.0976 4.39654 15.7072 4.78704L9.18667 11.3075C8.80763 11.6871 8.80735 12.314 9.18667 12.6933L15.7072 19.2128C16.0976 19.6033 16.0975 20.2363 15.7072 20.6269C15.3167 21.0174 14.6836 21.0174 14.2931 20.6269L7.77261 14.1074C6.6121 12.9468 6.61209 11.053 7.77261 9.89251L14.2931 3.37298ZM15.3537 3.72649C15.1584 3.53126 14.8419 3.53131 14.6466 3.72649L8.12612 10.246C7.16087 11.2113 7.16088 12.7886 8.12612 13.7538L14.6466 20.2734C14.8419 20.4686 15.1584 20.4686 15.3537 20.2734C15.5488 20.0781 15.5489 19.7615 15.3537 19.5663L8.83315 13.0468C8.25858 12.4722 8.25885 11.5288 8.83315 10.954L15.3537 4.43352C15.5488 4.23828 15.5488 3.92174 15.3537 3.72649Z" fill="currentColor"/>
</svg>
