<svg width="24" height="24" viewBox="0 0 24 24" fill="none" xmlns="http://www.w3.org/2000/svg">
<path fill-rule="evenodd" clip-rule="evenodd" d="M8.37964 3.54967C8.67254 3.25678 9.14741 3.25678 9.4403 3.54967L15.9603 10.0697C17.0232 11.1326 17.0232 12.8674 15.9603 13.9303L9.4403 20.4503C9.14741 20.7432 8.67254 20.7432 8.37964 20.4503C8.08675 20.1574 8.08675 19.6826 8.37964 19.3897L14.8996 12.8697C15.3768 12.3926 15.3768 11.6074 14.8996 11.1303L8.37964 4.61033C8.08675 4.31744 8.08675 3.84256 8.37964 3.54967Z" fill="currentColor"/>
<path d="M8.20296 3.37297C8.59348 2.98245 9.2265 2.98245 9.61702 3.37297L16.1375 9.8925C17.298 11.053 17.2979 12.9468 16.1375 14.1073L9.61702 20.6269C9.2265 21.0174 8.59348 21.0174 8.20296 20.6269C7.81251 20.2363 7.81246 19.6033 8.20296 19.2128L14.7225 12.6933C15.102 12.3138 15.1019 11.687 14.7225 11.3075L8.20296 4.78703C7.81243 4.39651 7.81243 3.7635 8.20296 3.37297ZM9.2635 3.72649C9.06824 3.53122 8.75174 3.53122 8.55647 3.72649C8.36121 3.92175 8.36121 4.23826 8.55647 4.43352L15.076 10.954C15.6507 11.5288 15.6507 12.4721 15.076 13.0468L8.55647 19.5663C8.36124 19.7616 8.36129 20.0781 8.55647 20.2734C8.75174 20.4686 9.06824 20.4686 9.2635 20.2734L15.784 13.7538C16.7492 12.7886 16.7492 11.2113 15.784 10.246L9.2635 3.72649Z" fill="currentColor"/>
</svg>
