<svg width="24" height="24" viewBox="0 0 24 24" fill="none" xmlns="http://www.w3.org/2000/svg">
<path d="M15.5 4.75C14.0661 4.75 12.6644 5.1752 11.4721 5.97185C10.2799 6.76849 9.35061 7.90078 8.80187 9.22555C8.25314 10.5503 8.10956 12.008 8.38931 13.4144C8.66905 14.8208 9.35955 16.1126 10.3735 17.1265C11.3874 18.1405 12.6792 18.831 14.0856 19.1107C15.492 19.3904 16.9497 19.2469 18.2745 18.6981C19.5992 18.1494 20.7315 17.2201 21.5282 16.0279C22.3248 14.8356 22.75 13.4339 22.75 12C22.7474 10.078 21.9827 8.23546 20.6236 6.8764C19.2645 5.51733 17.422 4.75265 15.5 4.75ZM17.78 14.28C17.6394 14.4205 17.4488 14.4993 17.25 14.4993C17.0512 14.4993 16.8606 14.4205 16.72 14.28L15 12.53C14.8593 12.3895 14.7802 12.1988 14.78 12V9C14.78 8.80109 14.859 8.61032 14.9997 8.46967C15.1403 8.32902 15.3311 8.25 15.53 8.25C15.7289 8.25 15.9197 8.32902 16.0603 8.46967C16.201 8.61032 16.28 8.80109 16.28 9V11.69L17.81 13.22C17.9465 13.3646 18.0201 13.5574 18.0145 13.7562C18.0088 13.955 17.9245 14.1434 17.78 14.28ZM6.5 12.75H2C1.80109 12.75 1.61032 12.671 1.46967 12.5303C1.32902 12.3897 1.25 12.1989 1.25 12C1.25 11.8011 1.32902 11.6103 1.46967 11.4697C1.61032 11.329 1.80109 11.25 2 11.25H6.5C6.69891 11.25 6.88968 11.329 7.03033 11.4697C7.17098 11.6103 7.25 11.8011 7.25 12C7.25 12.1989 7.17098 12.3897 7.03033 12.5303C6.88968 12.671 6.69891 12.75 6.5 12.75Z" fill="currentColor"/>
<path d="M7.5 8.75H5C4.80109 8.75 4.61032 8.67098 4.46967 8.53033C4.32902 8.38968 4.25 8.19891 4.25 8C4.25 7.80109 4.32902 7.61032 4.46967 7.46967C4.61032 7.32902 4.80109 7.25 5 7.25H7.5C7.69891 7.25 7.88968 7.32902 8.03033 7.46967C8.17098 7.61032 8.25 7.80109 8.25 8C8.25 8.19891 8.17098 8.38968 8.03033 8.53033C7.88968 8.67098 7.69891 8.75 7.5 8.75ZM7.5 16.75H5C4.80109 16.75 4.61032 16.671 4.46967 16.5303C4.32902 16.3897 4.25 16.1989 4.25 16C4.25 15.8011 4.32902 15.6103 4.46967 15.4697C4.61032 15.329 4.80109 15.25 5 15.25H7.5C7.69891 15.25 7.88968 15.329 8.03033 15.4697C8.17098 15.6103 8.25 15.8011 8.25 16C8.25 16.1989 8.17098 16.3897 8.03033 16.5303C7.88968 16.671 7.69891 16.75 7.5 16.75Z" fill="currentColor"/>
</svg>
