<svg width="24" height="24" viewBox="0 0 24 24" fill="none" xmlns="http://www.w3.org/2000/svg">
<path d="M12 1.25C17.9371 1.25 22.75 6.06294 22.75 12C22.75 17.9371 17.9371 22.75 12 22.75C6.06294 22.75 1.25 17.9371 1.25 12C1.25 6.06294 6.06294 1.25 12 1.25ZM12 7C11.4477 7 11 7.44772 11 8V12C11 12.2652 11.1054 12.5195 11.293 12.707L13.293 14.707C13.6835 15.0976 14.3165 15.0976 14.707 14.707C15.0976 14.3165 15.0976 13.6835 14.707 13.293L13 11.5859V8C13 7.44772 12.5523 7 12 7Z" fill="currentColor"/>
</svg>
