<svg width="24" height="24" viewBox="0 0 24 24" fill="none" xmlns="http://www.w3.org/2000/svg">
<path d="M6.97391 6.80737L5.45455 3.30571C5.39448 3.16726 5.49597 3.01262 5.64689 3.01262H6.54928C6.58505 3.01262 6.62025 3.02175 6.65147 3.03921L9.51908 4.64032C9.53678 4.65019 9.55903 4.64646 9.57247 4.63126L11.8456 2.06941C11.8649 2.04758 11.8887 2.03011 11.9153 2.01815C11.942 2.00619 11.9708 2 12 2C12.0292 2 12.058 2.00619 12.0847 2.01815C12.1113 2.03011 12.1351 2.04758 12.1544 2.06941L14.4275 4.63126C14.441 4.64642 14.4632 4.65019 14.4809 4.64032L17.3485 3.03921C17.3798 3.02176 17.415 3.01261 17.4507 3.01262H18.3531C18.504 3.01262 18.6055 3.16726 18.5455 3.30571L17.0261 6.80737V7.32481H7.03926L6.97391 6.80737Z" fill="#FEE97D"/>
<path d="M8.40569 4.89008L7.90669 3.74007L6.65142 3.03923C6.62019 3.02178 6.585 3.01262 6.54923 3.01263H5.64687C5.49596 3.01263 5.39451 3.16727 5.45457 3.30573L6.97389 6.80739L7.03929 7.32482H17.0262V6.80739L17.3305 6.10602L9.58377 5.70725C9.3308 5.6942 9.0865 5.61079 8.87836 5.46642C8.67023 5.32205 8.50653 5.12244 8.40569 4.89008Z" fill="#FEDF30"/>
<path d="M11.6324 21.8457L2.16247 12.1913C1.95329 11.978 1.96882 11.6321 2.19631 11.4385L5.59824 8.54264C5.69139 8.46334 5.80973 8.4198 5.93206 8.4198H18.068C18.1904 8.4198 18.3087 8.46336 18.4018 8.54264L21.8038 11.4385C22.0312 11.6321 22.0468 11.978 21.8376 12.1913L12.3677 21.8457C12.1658 22.0515 11.8343 22.0515 11.6324 21.8457Z" fill="#99E6FC"/>
<path d="M4.94305 12.1913C4.73388 11.978 4.74941 11.6321 4.9769 11.4385L8.37882 8.54264C8.47198 8.46334 8.59032 8.4198 8.71265 8.4198H5.93207C5.80974 8.4198 5.6914 8.46335 5.59825 8.54264L2.19628 11.4385C1.96879 11.6321 1.95326 11.978 2.16244 12.1913L11.6324 21.8457C11.8343 22.0515 12.1658 22.0515 12.3677 21.8457L13.3903 20.8031L4.94305 12.1913Z" fill="#62DBFB"/>
<path d="M10.6483 8.41968L8.12214 11.7969L5.59807 8.5426C5.69149 8.46352 5.80991 8.41968 5.93202 8.41968H6.97402H10.6483Z" fill="#01D0FB"/>
<path d="M8.65268 8.42373L8.71258 8.4198V8.41968H5.93196C5.8099 8.41968 5.69152 8.46352 5.5981 8.54256V8.54273L6.7039 9.96838L8.3788 8.54264C8.45633 8.47681 8.55164 8.43543 8.65268 8.42373Z" fill="#01C0FA"/>
<path d="M18.402 8.5426L15.8779 11.7969L13.3518 8.41968H18.0681C18.1902 8.41968 18.3086 8.46352 18.402 8.5426Z" fill="#01D0FB"/>
<path d="M21.9832 11.7907L21.9017 11.7969H15.8779L18.402 8.5426L21.8038 11.4383C21.8555 11.4823 21.898 11.5361 21.9288 11.5966C21.9596 11.657 21.9781 11.723 21.9832 11.7907ZM15.8779 11.7969L12 21.9181L8.12215 11.7969H15.8779Z" fill="#01C0FA"/>
<path d="M12.6977 20.097L10.4078 17.7625L12 21.9181L12.6977 20.097Z" fill="#08A9F1"/>
<path d="M5.59806 8.5426L8.12213 11.7969H2.01642C2.02083 11.7281 2.03902 11.6609 2.06993 11.5993C2.10083 11.5377 2.14381 11.483 2.1963 11.4383L5.59806 8.5426Z" fill="#01C0FA"/>
<path d="M21.9832 11.7907C21.9943 11.9337 21.9464 12.0804 21.8378 12.1914L12.3676 21.8456C12.3196 21.8947 12.2622 21.9336 12.1988 21.9601C12.1355 21.9865 12.0675 22 11.9988 21.9997L12 21.9181L15.8779 11.7969H21.9017L21.9832 11.7907Z" fill="#01D0FB"/>
<path d="M13.3903 20.803L12.6978 20.097L12 21.9181L11.9988 21.9996C12.1324 22 12.2664 21.9488 12.3676 21.8456L13.3903 20.803Z" fill="#01C0FA"/>
<path d="M13.3518 8.41968L15.8779 11.7969H8.12215L10.6483 8.41968H13.3518Z" fill="#08A9F1"/>
<path d="M17.0262 8.41979H6.97389C6.68489 8.41979 6.45059 8.18549 6.45059 7.89649V7.33067C6.45059 7.04167 6.68489 6.80737 6.97389 6.80737H17.0262C17.3152 6.80737 17.5495 7.04167 17.5495 7.33067V7.89649C17.5495 8.18549 17.3152 8.41979 17.0262 8.41979Z" fill="#FEE45A"/>
<path d="M8.71263 7.89643V7.33061C8.71263 7.04161 8.94692 6.80731 9.23592 6.80731H6.97389C6.68489 6.80731 6.45059 7.04161 6.45059 7.33061V7.89643C6.45059 8.18543 6.68489 8.41973 6.97389 8.41973H9.23592C8.94688 8.41977 8.71263 8.18547 8.71263 7.89643Z" fill="#FED402"/>
<path d="M12.204 5.59699H11.7961C11.5026 5.59699 11.2648 5.35912 11.2648 5.0657V4.94388C11.2648 4.65046 11.5026 4.4126 11.7961 4.4126H12.204C12.4974 4.4126 12.7353 4.65046 12.7353 4.94388V5.0657C12.7353 5.35912 12.4974 5.59699 12.204 5.59699ZM14.2279 6.02141H14.0749C13.9051 6.02141 13.7676 5.88381 13.7676 5.71409C13.7676 5.54437 13.9051 5.40678 14.0749 5.40678H14.2279C14.3094 5.40678 14.3876 5.43916 14.4452 5.49679C14.5028 5.55442 14.5352 5.63259 14.5352 5.71409C14.5352 5.7956 14.5028 5.87376 14.4452 5.9314C14.3876 5.98903 14.3094 6.02141 14.2279 6.02141ZM16.1214 6.02141H15.9684C15.7986 6.02141 15.661 5.88381 15.661 5.71409C15.661 5.54437 15.7986 5.40678 15.9684 5.40678H16.1214C16.2029 5.40678 16.281 5.43916 16.3387 5.49679C16.3963 5.55442 16.4287 5.63259 16.4287 5.71409C16.4287 5.7956 16.3963 5.87376 16.3387 5.9314C16.281 5.98903 16.2029 6.02141 16.1214 6.02141ZM9.92517 6.02141H9.77217C9.60241 6.02141 9.46486 5.88381 9.46486 5.71409C9.46486 5.54437 9.60241 5.40678 9.77217 5.40678H9.92517C10.0949 5.40678 10.2325 5.54437 10.2325 5.71409C10.2325 5.88381 10.0949 6.02141 9.92517 6.02141ZM8.03171 6.02141H7.87871C7.70895 6.02141 7.5714 5.88381 7.5714 5.71409C7.5714 5.54437 7.70895 5.40678 7.87871 5.40678H8.03171C8.20147 5.40678 8.33902 5.54437 8.33902 5.71409C8.33902 5.88381 8.20147 6.02141 8.03171 6.02141Z" fill="#F28CC4"/>
<path d="M4.97688 11.4385L6.7039 9.96837L5.5981 8.54272L5.59781 8.54285L2.1963 11.4383C2.14381 11.483 2.10083 11.5377 2.06993 11.5993C2.03902 11.6609 2.02083 11.7281 2.01642 11.7969H4.7972C4.80153 11.7281 4.81967 11.6609 4.85054 11.5994C4.88141 11.5378 4.92438 11.4831 4.97688 11.4385Z" fill="#08A9F1"/>
</svg>
