<svg width="15" height="12" viewBox="0 0 15 12" fill="none" xmlns="http://www.w3.org/2000/svg">
<g clip-path="url(#clip0_13556_34338)">
<path d="M14.9853 6.05172C14.9853 2.50354 12.0238 0.0511148 8.77878 0.0521855H5.98633C2.70272 0.0510077 0 2.50429 0 6.05172C0 9.29708 2.70279 11.9635 5.98633 11.9478H8.77878C12.0235 11.9634 14.9853 9.29622 14.9853 6.05172Z" fill="#0079BE"/>
<path d="M6.00385 0.554749C3.0034 0.555676 0.572146 2.99268 0.571075 6.00037C0.571825 9.00756 3.00319 11.4442 6.00385 11.4453C9.00498 11.4444 11.437 9.0076 11.4373 6.00037C11.4369 2.99261 9.00505 0.555819 6.00385 0.554749Z" fill="white"/>
<path d="M2.5701 5.9857C2.57295 4.51597 3.48902 3.26267 4.78076 2.76465V9.20603C3.48902 8.70829 2.57292 7.45564 2.5701 5.98573V5.9857ZM7.24553 9.20764V2.76483C8.5378 3.26167 9.45529 4.51568 9.45761 5.98609C9.45525 7.45696 8.5378 8.71004 7.24553 9.20782V9.20764Z" fill="#0079BE"/>
</g>
<defs>
<clipPath id="clip0_13556_34338">
<rect width="14.9853" height="12" fill="white"/>
</clipPath>
</defs>
</svg>
