<svg width="24" height="24" viewBox="0 0 24 24" fill="none" xmlns="http://www.w3.org/2000/svg">
<path d="M20.2415 5.18563C18.7257 4.49012 17.1003 3.9777 15.4008 3.68421C15.3698 3.67855 15.3389 3.69271 15.3229 3.72102C15.1139 4.09283 14.8823 4.57788 14.7202 4.95913C12.8922 4.68547 11.0737 4.68547 9.28321 4.95913C9.12102 4.56941 8.88106 4.09283 8.67107 3.72102C8.65513 3.69365 8.62421 3.67949 8.59326 3.68421C6.89468 3.97676 5.26922 4.48918 3.75248 5.18563C3.73935 5.19129 3.7281 5.20074 3.72063 5.213C0.637468 9.81917 -0.207138 14.3121 0.207197 18.7494C0.209072 18.7711 0.221258 18.7919 0.238132 18.8051C2.27231 20.2989 4.24276 21.2058 6.17662 21.8069C6.20757 21.8164 6.24037 21.8051 6.26006 21.7796C6.71752 21.1549 7.1253 20.4962 7.47493 19.8035C7.49556 19.7629 7.47587 19.7148 7.4337 19.6987C6.78689 19.4534 6.171 19.1542 5.57855 18.8145C5.53169 18.7871 5.52794 18.7201 5.57105 18.688C5.69572 18.5946 5.82043 18.4974 5.93947 18.3992C5.96101 18.3813 5.99102 18.3775 6.01634 18.3889C9.90845 20.1659 14.1221 20.1659 17.9683 18.3889C17.9936 18.3766 18.0236 18.3804 18.0461 18.3983C18.1652 18.4965 18.2899 18.5946 18.4155 18.688C18.4586 18.7201 18.4558 18.7871 18.4089 18.8145C17.8165 19.1608 17.2006 19.4534 16.5528 19.6978C16.5107 19.7138 16.4919 19.7629 16.5125 19.8035C16.8697 20.4952 17.2774 21.1539 17.7265 21.7786C17.7452 21.8051 17.7789 21.8164 17.8099 21.8069C19.7531 21.2058 21.7236 20.2989 23.7578 18.8051C23.7756 18.7919 23.7868 18.772 23.7887 18.7503C24.2846 13.6204 22.9581 9.16426 20.2725 5.21394C20.2659 5.20074 20.2547 5.19129 20.2415 5.18563ZM8.05615 16.0476C6.88436 16.0476 5.91884 14.9718 5.91884 13.6506C5.91884 12.3294 6.86564 11.2536 8.05615 11.2536C9.25601 11.2536 10.2122 12.3388 10.1934 13.6506C10.1934 14.9718 9.24663 16.0476 8.05615 16.0476ZM15.9585 16.0476C14.7867 16.0476 13.8212 14.9718 13.8212 13.6506C13.8212 12.3294 14.768 11.2536 15.9585 11.2536C17.1584 11.2536 18.1145 12.3388 18.0958 13.6506C18.0958 14.9718 17.1584 16.0476 15.9585 16.0476Z" fill="#5865F2"/>
</svg>
