<svg width="24" height="24" viewBox="0 0 24 24" fill="none" xmlns="http://www.w3.org/2000/svg">
<path d="M12.0049 10.5C12.8333 10.5 13.5049 11.1716 13.5049 12C13.5049 12.8284 12.8333 13.5 12.0049 13.5H11.9961C11.1677 13.5 10.4961 12.8284 10.4961 12C10.4961 11.1716 11.1677 10.5 11.9961 10.5H12.0049Z" fill="currentColor"/>
<path d="M18.0088 10.5C18.8372 10.5 19.5088 11.1716 19.5088 12C19.5088 12.8284 18.8372 13.5 18.0088 13.5H18C17.1716 13.5 16.5 12.8284 16.5 12C16.5 11.1716 17.1716 10.5 18 10.5H18.0088Z" fill="currentColor"/>
<path d="M6.00879 10.5C6.83722 10.5 7.50879 11.1716 7.50879 12C7.50879 12.8284 6.83722 13.5 6.00879 13.5H6C5.17157 13.5 4.5 12.8284 4.5 12C4.5 11.1716 5.17157 10.5 6 10.5H6.00879Z" fill="currentColor"/>
</svg>
