<svg width="40" height="40" viewBox="0 0 40 40" fill="none" xmlns="http://www.w3.org/2000/svg">
<rect width="40" height="40" rx="8" fill="#33A7FF"/>
<path d="M29.8996 18.6157C29.5392 15.9958 28.1502 13.6259 26.0382 12.0275C23.9261 10.4291 21.264 9.73312 18.6374 10.0926C16.0109 10.452 13.6351 11.8375 12.0327 13.9443C10.4302 16.051 9.73245 18.7065 10.0928 21.3264C10.3897 23.4948 11.3887 25.5072 12.9378 27.0571C14.4869 28.607 16.5012 29.6097 18.6742 29.9125C19.1188 29.9706 19.5668 29.9998 20.0152 30C21.827 30.003 23.6049 29.5098 25.155 28.5742C25.3748 28.4422 25.5329 28.2285 25.5947 27.9802C25.6565 27.7319 25.6168 27.4692 25.4845 27.2501C25.3521 27.0309 25.1379 26.8731 24.889 26.8115C24.64 26.7499 24.3767 26.7894 24.157 26.9214C23.0536 27.582 21.8077 27.9695 20.5235 28.0513C19.2392 28.1332 17.954 27.9071 16.7753 27.392C15.5966 26.8769 14.5587 26.0877 13.7485 25.0905C12.9382 24.0933 12.3791 22.9171 12.118 21.6601C11.8568 20.4032 11.9012 19.1022 12.2475 17.8659C12.5937 16.6296 13.2317 15.494 14.1081 14.5541C14.9845 13.6142 16.0738 12.8973 17.2849 12.4633C18.496 12.0294 19.7937 11.891 21.0694 12.0599C22.2543 12.217 23.3893 12.6351 24.3922 13.2838C25.3951 13.9326 26.2408 14.7957 26.8679 15.8108C27.4951 16.8258 27.888 17.9672 28.0183 19.1525C28.1486 20.3377 28.0129 21.537 27.6211 22.6634C27.5195 22.9343 27.3358 23.1669 27.0956 23.3289C26.8554 23.4909 26.5706 23.5744 26.2807 23.5676C25.8987 23.5671 25.5325 23.4155 25.2624 23.1461C24.9922 22.8766 24.8403 22.5113 24.8398 22.1303V16.1719C24.8398 15.916 24.7379 15.6707 24.5565 15.4898C24.3751 15.3089 24.1291 15.2072 23.8727 15.2072C23.6162 15.2072 23.3702 15.3089 23.1888 15.4898C23.0074 15.6707 22.9056 15.916 22.9056 16.1719V16.1809C22.1724 15.6289 21.2968 15.2967 20.3813 15.223C19.4657 15.1494 18.548 15.3374 17.7357 15.765C16.9233 16.1926 16.2499 16.8422 15.7942 17.6377C15.3385 18.4332 15.1193 19.3417 15.1624 20.2569C15.2055 21.1722 15.509 22.0562 16.0374 22.8056C16.5659 23.555 17.2973 24.1388 18.1463 24.4886C18.9952 24.8385 19.9265 24.9399 20.8311 24.781C21.7357 24.6221 22.5763 24.2095 23.2544 23.5914C23.5283 24.1606 23.9575 24.6413 24.4928 24.9783C25.0281 25.3153 25.6477 25.4951 26.2807 25.4969C26.9727 25.5036 27.6495 25.2951 28.2173 24.9005C28.7851 24.5059 29.2155 23.9447 29.4489 23.2949C29.9701 21.7931 30.1246 20.189 29.8996 18.6157ZM20.0043 22.9245C19.4304 22.9245 18.8695 22.7548 18.3924 22.4368C17.9153 22.1188 17.5434 21.6668 17.3238 21.138C17.1042 20.6092 17.0468 20.0273 17.1587 19.4659C17.2707 18.9046 17.547 18.3889 17.9527 17.9842C18.3585 17.5794 18.8755 17.3038 19.4383 17.1922C20.001 17.0805 20.5844 17.1378 21.1145 17.3568C21.6447 17.5759 22.0978 17.9468 22.4166 18.4227C22.7354 18.8986 22.9056 19.4582 22.9056 20.0305C22.9047 20.7978 22.5988 21.5334 22.0548 22.0759C21.5109 22.6185 20.7735 22.9237 20.0043 22.9245Z" fill="white"/>
</svg>
