<svg width="24" height="24" viewBox="0 0 24 24" fill="none" xmlns="http://www.w3.org/2000/svg">
<path d="M20.0002 11.8184V9.27246C20.0002 7.71399 19.999 6.6322 19.9016 5.80371C19.8069 4.9989 19.6326 4.55554 19.3703 4.22559C19.1877 3.99601 18.9689 3.78995 18.7209 3.61523C18.3534 3.3564 17.8565 3.18612 16.9797 3.09473C16.0867 3.00166 14.9247 3 13.2726 3H13.0002C12.4479 3 12.0002 2.55228 12.0002 2C12.0002 1.44772 12.4479 1 13.0002 1H13.2726C14.8816 1 16.166 0.999104 17.1867 1.10547C18.2234 1.21352 19.1083 1.44156 19.8732 1.98047C20.274 2.26288 20.6317 2.59942 20.9348 2.98047C21.5199 3.71618 21.7697 4.57343 21.8869 5.56934C22.0013 6.54181 22.0002 7.76211 22.0002 9.27246V11.8184C22.0002 13.2865 22.0009 14.4361 21.9396 15.3652C21.8778 16.3033 21.7498 17.086 21.4611 17.8145C20.595 20.0001 18.7732 21.7015 16.4933 22.502C15.0346 23.014 13.2456 23 10.1818 23C8.46751 23 7.35364 23.0143 6.43378 22.6914C5.02007 22.1951 3.8812 21.137 3.33807 19.7666C3.14988 19.2917 3.07308 18.7945 3.03632 18.2373C3.00015 17.6889 3.00018 17.0151 3.00018 16.1816V12C3.00018 11.4477 3.4479 11 4.00018 11C4.55247 11 5.00018 11.4477 5.00018 12V16.1816C5.00018 17.0414 5.00061 17.6382 5.03143 18.1055C5.06165 18.5636 5.11776 18.8281 5.19745 19.0293C5.51591 19.8329 6.19974 20.4901 7.09589 20.8047C7.61284 20.9862 8.29826 21 10.1818 21C13.4145 21 14.7745 20.9857 15.8303 20.6152C17.5926 19.9966 18.9601 18.6969 19.6017 17.0781C19.782 16.6233 19.8882 16.0726 19.9435 15.2334C19.9995 14.3853 20.0002 13.3128 20.0002 11.8184Z" fill="currentColor"/>
<path d="M13.3331 18.667C13.3331 18.5263 13.3277 18.373 13.3194 18.1953C13.3115 18.0247 13.301 17.828 13.297 17.6318C13.2889 17.2452 13.2999 16.7725 13.4239 16.3096C13.6705 15.3894 14.3895 14.6704 15.3097 14.4238C15.7726 14.2998 16.2453 14.2888 16.6319 14.2969C16.8281 14.301 17.0248 14.3114 17.1954 14.3193C17.3731 14.3276 17.5264 14.333 17.6671 14.333C18.9556 14.3328 20.0001 13.2886 20.0001 12C20.0001 11.4477 20.4478 11 21.0001 11C21.5524 11 22.0001 11.4477 22.0001 12C22.0001 14.3931 20.0602 16.3328 17.6671 16.333C17.4749 16.333 17.2796 16.3246 17.1026 16.3164C16.9187 16.3079 16.754 16.3003 16.5899 16.2969C16.2559 16.2899 16.0116 16.3071 15.8272 16.3564C15.5975 16.4182 15.4182 16.5974 15.3565 16.8271C15.3071 17.0115 15.29 17.2558 15.297 17.5898C15.3004 17.7539 15.308 17.9186 15.3165 18.1025C15.3247 18.2795 15.3331 18.4748 15.3331 18.667C15.3329 21.0601 13.3932 23 11.0001 23C10.4478 23 10.0001 22.5523 10.0001 22C10.0001 21.4477 10.4478 21 11.0001 21C12.2886 21 13.3329 19.9555 13.3331 18.667Z" fill="currentColor"/>
<path d="M6 10V7H3C2.44772 7 2 6.55229 2 6C2 5.44772 2.44772 5 3 5H6V2C6 1.44772 6.44772 1 7 1C7.55228 1 8 1.44772 8 2V5H11C11.5523 5 12 5.44772 12 6C12 6.55229 11.5523 7 11 7H8V10C8 10.5523 7.55228 11 7 11C6.44772 11 6 10.5523 6 10Z" fill="currentColor"/>
</svg>
