<svg width="24" height="24" viewBox="0 0 24 24" fill="none" xmlns="http://www.w3.org/2000/svg">
<path d="M19.5 11.8184V9.27246C19.5 7.71399 19.4988 6.6322 19.4014 5.80371C19.3067 4.9989 19.1324 4.55554 18.8701 4.22559C18.6875 3.99601 18.4687 3.78995 18.2207 3.61524C17.8532 3.3564 17.3563 3.18612 16.4795 3.09473C15.5865 3.00166 14.4246 3 12.7725 3H12C9.96988 3 8.54183 3.00202 7.46192 3.13867C6.40501 3.27244 5.83348 3.51938 5.42969 3.89942C5.03453 4.27136 4.78363 4.78538 4.64551 5.75195C4.50235 6.75412 4.5 8.0844 4.5 10V16.1816C4.5 17.0414 4.50043 17.6382 4.53125 18.1055C4.56147 18.5636 4.61758 18.8281 4.69727 19.0293C5.01572 19.8329 5.69956 20.4901 6.5957 20.8047C7.11266 20.9862 7.79808 21 9.68164 21C12.9143 21 14.2743 20.9857 15.3301 20.6152C17.0925 19.9966 18.46 18.6969 19.1016 17.0781C19.2818 16.6233 19.388 16.0726 19.4434 15.2334C19.4993 14.3853 19.5 13.3128 19.5 11.8184ZM21.5 11.8184C21.5 13.2865 21.5007 14.4361 21.4395 15.3652C21.3776 16.3033 21.2496 17.086 20.9609 17.8145C20.0948 20.0001 18.273 21.7015 15.9932 22.502C14.5344 23.014 12.7454 23 9.68164 23C7.96733 23 6.85346 23.0143 5.93359 22.6914C4.51989 22.1951 3.38102 21.137 2.83789 19.7666C2.6497 19.2917 2.5729 18.7945 2.53613 18.2373C2.49996 17.6889 2.5 17.0151 2.5 16.1816V10C2.5 8.14446 2.498 6.64605 2.66602 5.46973C2.8391 4.25808 3.21002 3.24294 4.05957 2.44336C4.90051 1.65193 5.95341 1.31343 7.21094 1.1543C8.44569 0.998055 10.0232 1 12 1H12.7725C14.3814 1 15.6658 0.999105 16.6865 1.10547C17.7232 1.21352 18.6082 1.44156 19.373 1.98047C19.7739 2.26288 20.1315 2.59942 20.4346 2.98047C21.0197 3.71618 21.2695 4.57343 21.3867 5.56934C21.5011 6.54181 21.5 7.76211 21.5 9.27246V11.8184Z" fill="currentColor"/>
<path d="M12.833 18.667C12.833 18.5263 12.8276 18.373 12.8193 18.1953C12.8114 18.0247 12.801 17.828 12.7969 17.6318C12.7888 17.2452 12.7998 16.7725 12.9238 16.3096C13.1704 15.3894 13.8894 14.6704 14.8096 14.4238C15.2725 14.2998 15.7452 14.2888 16.1318 14.2969C16.328 14.301 16.5247 14.3114 16.6953 14.3193C16.873 14.3276 17.0263 14.333 17.167 14.333C18.4555 14.3328 19.5 13.2886 19.5 12C19.5 11.4477 19.9477 11 20.5 11C21.0523 11 21.5 11.4477 21.5 12C21.5 14.3931 19.5601 16.3328 17.167 16.333C16.9748 16.333 16.7795 16.3246 16.6025 16.3164C16.4186 16.3079 16.2539 16.3003 16.0898 16.2969C15.7558 16.2899 15.5115 16.3071 15.3271 16.3564C15.0974 16.4182 14.9182 16.5974 14.8564 16.8271C14.8071 17.0115 14.7899 17.2558 14.7969 17.5898C14.8003 17.7539 14.8079 17.9186 14.8164 18.1025C14.8246 18.2795 14.833 18.4748 14.833 18.667C14.8328 21.0601 12.8931 23 10.5 23C9.94772 23 9.5 22.5523 9.5 22C9.5 21.4477 9.94772 21 10.5 21C11.7886 21 12.8328 19.9555 12.833 18.667Z" fill="currentColor"/>
<path d="M15 6C15.5523 6 16 6.44772 16 7C16 7.55228 15.5523 8 15 8H8C7.44772 8 7 7.55228 7 7C7 6.44772 7.44772 6 8 6H15Z" fill="currentColor"/>
<path d="M11 10C11.5523 10 12 10.4477 12 11C12 11.5523 11.5523 12 11 12H8C7.44772 12 7 11.5523 7 11C7 10.4477 7.44772 10 8 10H11Z" fill="currentColor"/>
</svg>
