<svg width="24" height="24" viewBox="0 0 24 24" fill="none" xmlns="http://www.w3.org/2000/svg">
<path d="M17.7023 8.03868C17.1845 7.53814 16.3794 6.86254 16.037 8.38802C15.9205 8.90669 15.6484 9.30652 15.4152 9.62844C15.1638 8.50214 14.4076 7.33636 13.6951 6.55033C13.4285 6.25625 12.4824 5.0872 12.3007 3.13144C12.2735 2.83955 11.8819 2.70248 11.637 2.89936C9.29627 4.7807 8.01146 7.3682 7.96375 10.2812C7.96375 10.2812 6.98906 9.55376 6.45954 8.2005C6.31695 7.83608 5.76516 7.76656 5.52575 8.08878C5.48112 8.14885 5.43877 8.21021 5.39875 8.27278C3.59277 11.1001 2.72402 14.5335 3.52715 17.7278C4.87001 23.0773 13.7528 24.5729 18.4554 21.2106C23.0564 17.9211 21.5938 11.7985 17.7023 8.03868Z" fill="#ED694A"/>
<path d="M4.77722 18.0637C3.9834 14.8352 4.82366 11.3684 6.58723 8.49675C6.54139 8.39915 6.49884 8.30037 6.45964 8.20053C6.31706 7.83611 5.76526 7.76658 5.52586 8.08881C5.48124 8.14887 5.4389 8.21024 5.3989 8.2728C3.59292 11.1001 2.72417 14.5336 3.52731 17.7279C4.13982 20.1679 6.32118 21.8056 8.95889 22.5468C6.90118 21.6642 5.28976 20.1513 4.77722 18.0637ZM9.21998 10.2275C9.31748 7.5838 10.3975 5.21321 12.3305 3.39211C12.319 3.30625 12.3092 3.22023 12.301 3.13408C12.2733 2.8397 11.896 2.69206 11.6521 2.88722C9.3913 4.69698 8.01331 7.25831 7.96386 10.2811L8.387 10.572C8.59539 10.7153 8.87774 10.7091 9.07677 10.5778C9.19552 10.4887 9.21256 10.3542 9.21998 10.2275Z" fill="#D8553A"/>
<path d="M16.2825 11.9492C15.9001 11.5795 15.3055 11.0805 15.0525 12.2073C14.9665 12.5903 14.7654 12.8857 14.5933 13.1235C14.4077 12.2916 13.8491 11.4305 13.3228 10.8499C13.1259 10.6327 12.4271 9.76925 12.2928 8.3246C12.2728 8.10898 11.9836 8.00779 11.8027 8.15319C10.0738 9.54276 9.12475 11.454 9.08957 13.6055C9.08957 13.6055 8.36961 13.0683 7.97855 12.0687C7.87324 11.7996 7.46563 11.7482 7.28883 11.9862C7.25587 12.0306 7.22458 12.0759 7.19502 12.1221C5.86105 14.2105 5.21937 16.7464 5.81257 19.1058C6.80444 23.0571 13.3654 24.1618 16.8389 21.6783C20.2372 19.2486 19.157 14.7264 16.2825 11.9492Z" fill="#F4A32C"/>
<path d="M7.04961 19.4157C6.52441 17.1094 7.06839 14.6346 8.22172 12.5738C8.12754 12.4106 8.04625 12.2419 7.97844 12.0687C7.87313 11.7996 7.46552 11.7482 7.28872 11.9862C7.25574 12.0306 7.22446 12.0759 7.19491 12.1221C5.86099 14.2105 5.21936 16.7464 5.81246 19.1058C6.27379 20.9435 7.93991 22.165 9.93957 22.6966C8.51883 22.0658 7.40019 20.9574 7.04961 19.4157Z" fill="#E89528"/>
<path d="M14.9862 15.5193C14.7274 15.269 14.3248 14.9312 14.1536 15.6939C14.0954 15.9533 13.9592 16.1532 13.8427 16.3142C13.717 15.751 13.3389 15.1681 12.9826 14.7751C12.8493 14.6281 12.3763 14.0436 12.2854 13.0656C12.2718 12.9197 12.076 12.8511 11.9535 12.9496C10.7832 13.8903 10.1408 15.1841 10.1169 16.6405C10.1169 16.6405 9.62955 16.2768 9.36486 15.6002C9.29357 15.418 9.01767 15.3832 8.89799 15.5443C8.87567 15.5744 8.85448 15.605 8.83447 15.6363C7.9315 17.05 7.4971 18.7667 7.89865 20.3639C8.57007 23.0386 13.0115 23.7864 15.3627 22.1053C16.1679 21.5296 16.6672 20.7184 16.7684 19.8211C16.9212 18.4619 16.3305 16.818 14.9862 15.5193Z" fill="#F4D44E"/>
<path d="M13.7834 18.8323C13.6392 18.6929 13.4149 18.5047 13.3195 18.9296C13.2871 19.0741 13.2113 19.1855 13.1463 19.2751C13.0763 18.9614 12.8657 18.6366 12.6672 18.4177C12.5929 18.3358 12.3294 18.0101 12.2787 17.4653C12.2711 17.384 12.162 17.3458 12.0938 17.4006C11.4418 17.9247 11.0839 18.6455 11.0706 19.4569C11.0706 19.4569 10.7991 19.2543 10.6516 18.8773C10.6118 18.7758 10.4581 18.7564 10.3915 18.8462C10.3787 18.8635 10.3669 18.8807 10.3562 18.8975C9.85311 19.6851 9.61109 20.6415 9.83482 21.5313C10.3443 23.5608 14.5203 23.4993 14.7764 21.2289C14.8615 20.4717 14.5323 19.5558 13.7834 18.8323Z" fill="#EAE9E8"/>
<path d="M10.8044 21.9341C10.5807 21.1381 10.8227 20.2826 11.3258 19.578C11.3365 19.563 11.3484 19.5476 11.3611 19.5322C11.4278 19.4519 11.5815 19.4692 11.6212 19.56C11.7687 19.8972 12.0402 20.0785 12.0402 20.0785C12.0511 19.4821 12.2951 18.9407 12.7433 18.5064C12.6431 18.3836 12.3365 18.0872 12.2787 17.4654C12.2711 17.384 12.162 17.3459 12.0938 17.4007C11.4418 17.9248 11.0839 18.6456 11.0706 19.457C11.0706 19.457 10.7991 19.2544 10.6516 18.8774C10.6119 18.7759 10.4582 18.7565 10.3915 18.8463C10.3787 18.8636 10.3669 18.8808 10.3562 18.8976C9.85312 19.6852 9.61109 20.6416 9.83482 21.5314C10.0419 22.3562 10.8924 22.8519 11.8327 22.9715C11.3255 22.751 10.9356 22.4017 10.8044 21.9341Z" fill="#F7E7A1"/>
<path d="M8.5348 3.92381C9.58428 3.16803 9.58195 1.75406 8.5348 1C7.48532 1.75573 7.4876 3.16975 8.5348 3.92381ZM21.1138 9.98962C22.1632 9.23384 22.1609 7.81987 21.1138 7.06581C20.6341 7.4112 20.0666 9.23556 21.1138 9.98962ZM2.52605 10.5651C3.2824 10.0204 3.28075 9.00138 2.52605 8.45787C2.18036 8.70679 1.77134 10.0216 2.52605 10.5651ZM15.6257 6.03104C16.3821 5.48632 16.3804 4.46732 15.6257 3.92381C14.8693 4.46848 14.871 5.48757 15.6257 6.03104Z" fill="#D8553A"/>
<path d="M10.0545 13.26C10.2281 11.4445 11.0112 9.83024 12.326 8.59957C12.3124 8.50819 12.3013 8.41652 12.2927 8.32466C12.2727 8.10904 11.9835 8.00785 11.8026 8.15325C10.4326 9.25437 9.55327 10.6833 9.22938 12.2996L9.22889 12.2995C9.20071 12.4428 9.17649 12.5868 9.15624 12.7312C9.15629 12.7313 9.15635 12.7314 9.15644 12.7315C9.11656 13.0216 9.09419 13.3134 9.08942 13.6056C9.12601 13.612 9.95433 13.9889 10.0545 13.26Z" fill="#E89528"/>
<path d="M9.10896 20.7433C8.75201 19.2512 9.05601 17.6601 9.76223 16.2814C9.59381 16.0722 9.46002 15.8428 9.36491 15.6001C9.29357 15.418 9.01772 15.3832 8.89799 15.5443C8.87567 15.5743 8.85448 15.605 8.83447 15.6363C7.9315 17.05 7.4971 18.7666 7.89865 20.3638C8.21313 21.6165 9.35443 22.4464 10.7206 22.8023C9.92539 22.3349 9.32385 21.643 9.10896 20.7433ZM11.4055 15.9885C11.5238 15.2398 11.8697 14.4148 12.4142 13.7251C12.3549 13.5304 12.3082 13.3103 12.2855 13.0656C12.2719 12.9197 12.0761 12.8511 11.9536 12.9496C11.2244 13.5358 10.701 14.2593 10.4037 15.0735L10.4029 15.0733C10.3561 15.2012 10.29 15.4131 10.2499 15.5804C10.2502 15.5803 10.2506 15.5803 10.2509 15.5802C10.1674 15.9289 10.1226 16.284 10.1171 16.6405C10.7719 16.7128 11.3136 16.5693 11.4055 15.9885Z" fill="#E8C842"/>
</svg>
