<svg width="24" height="24" viewBox="0 0 24 24" fill="none" xmlns="http://www.w3.org/2000/svg">
<path d="M4.77722 18.0637C3.9834 14.8352 4.82366 11.3684 6.58723 8.49675C6.54139 8.39915 6.49884 8.30037 6.45964 8.20053C6.31706 7.83611 5.76526 7.76658 5.52586 8.08881C5.48124 8.14887 5.4389 8.21024 5.3989 8.2728C3.59292 11.1001 2.72417 14.5336 3.52731 17.7279C4.13982 20.1679 6.32118 21.8056 8.95889 22.5468C6.90118 21.6642 5.28976 20.1513 4.77722 18.0637ZM9.21998 10.2275C9.31748 7.5838 10.3975 5.21321 12.3305 3.39211C12.319 3.30625 12.3092 3.22023 12.301 3.13408C12.2733 2.8397 11.896 2.69206 11.6521 2.88722C9.3913 4.69698 8.01331 7.25831 7.96386 10.2811L8.387 10.572C8.59539 10.7153 8.87774 10.7091 9.07677 10.5778C9.19552 10.4887 9.21256 10.3542 9.21998 10.2275Z" fill="#E2E4E9"/>
<path fill-rule="evenodd" clip-rule="evenodd" d="M11.6369 2.89919C11.8818 2.70235 12.2738 2.83974 12.301 3.13161C12.4828 5.08727 13.4289 6.25649 13.6955 6.55056C14.408 7.33658 15.1639 8.50253 15.4152 9.62868C15.6484 9.30683 15.9208 8.90697 16.0373 8.38845C16.3798 6.86297 17.1845 7.5383 17.7023 8.03884C21.5938 11.7987 23.0562 17.9212 18.4553 21.2107C16.8073 22.3889 14.646 22.9685 12.4758 22.9968C13.5261 22.9662 14.5646 22.6757 15.3625 22.1052C16.1677 21.5296 16.6675 20.7184 16.7687 19.8211C16.9215 18.462 16.3306 16.818 14.9865 15.5193C14.7277 15.2691 14.3247 14.9313 14.1535 15.6941C14.0953 15.9533 13.9595 16.1533 13.843 16.3142C13.7173 15.7511 13.3389 15.1682 12.9826 14.7752C12.8493 14.6281 12.3763 14.0431 12.2853 13.0652C12.2714 12.9195 12.0757 12.8516 11.9533 12.95C10.7831 13.8906 10.1403 15.1841 10.1164 16.6404C10.1013 16.629 9.62491 16.2661 9.36445 15.6004C9.29316 15.4182 9.01733 15.3836 8.89765 15.5447C8.87542 15.5746 8.85411 15.6053 8.83418 15.6365C7.9313 17.0501 7.4971 18.7669 7.89863 20.364C8.31537 22.0238 10.1839 22.9411 12.1037 22.9968C8.20627 22.9343 4.37315 21.0956 3.52754 17.7283C2.72443 14.5341 3.5928 11.1005 5.39863 8.27321C5.43865 8.21065 5.48095 8.14871 5.52558 8.08864C5.765 7.76645 6.3166 7.83654 6.45918 8.20095C6.98872 9.55405 7.96406 10.281 7.96406 10.281C8.01182 7.36812 9.29622 4.78049 11.6369 2.89919Z" fill="#E2E4E9"/>
<path d="M8.5348 3.92381C9.58428 3.16803 9.58195 1.75406 8.5348 1C7.48532 1.75573 7.4876 3.16975 8.5348 3.92381ZM21.1138 9.98962C22.1632 9.23384 22.1609 7.81987 21.1138 7.06581C20.6341 7.4112 20.0666 9.23556 21.1138 9.98962ZM2.52605 10.5651C3.2824 10.0204 3.28075 9.00138 2.52605 8.45787C2.18036 8.70679 1.77134 10.0216 2.52605 10.5651ZM15.6257 6.03104C16.3821 5.48632 16.3804 4.46732 15.6257 3.92381C14.8693 4.46848 14.871 5.48757 15.6257 6.03104Z" fill="#E2E4E9"/>
</svg>
