<svg width="24" height="24" viewBox="0 0 24 24" fill="none" xmlns="http://www.w3.org/2000/svg">
<path fill-rule="evenodd" clip-rule="evenodd" d="M3.25 10.6868L2.69211 11.2218C2.29347 11.604 1.66045 11.5907 1.27821 11.1921C0.895967 10.7935 0.909258 10.1604 1.30789 9.77821L5.70301 5.56386C6.99217 4.32768 8.03207 3.33052 8.9598 2.6518C9.92464 1.94593 10.8777 1.5 12 1.5C13.1223 1.5 14.0754 1.94593 15.0402 2.6518C15.9679 3.33053 17.0078 4.32768 18.297 5.56387L22.6921 9.77821C23.0907 10.1604 23.104 10.7935 22.7218 11.1921C22.3396 11.5907 21.7065 11.604 21.3079 11.2218L20.75 10.6868V13.5565C20.75 15.3942 20.75 16.8498 20.5969 17.989C20.4392 19.1614 20.1071 20.1104 19.3588 20.8588C18.6104 21.6071 17.6614 21.9392 16.489 22.0969C15.3498 22.25 13.8942 22.25 12.0564 22.25H11.9435C10.1058 22.25 8.65018 22.25 7.51098 22.0969C6.33856 21.9392 5.38961 21.6071 4.64124 20.8588C3.89288 20.1104 3.56076 19.1614 3.40314 17.989C3.24997 16.8498 3.24999 15.3942 3.25 13.5564V13.5564V13.5564V10.6868ZM10.75 17C10.75 16.3096 11.3076 15.75 11.9955 15.75C12.6777 15.75 13.25 16.3117 13.25 17C13.25 17.6883 12.6777 18.25 11.9955 18.25C11.3076 18.25 10.75 17.6904 10.75 17Z" fill="currentColor"/>
</svg>
