<svg width="14" height="12" viewBox="0 0 14 12" fill="none" xmlns="http://www.w3.org/2000/svg">
<g clip-path="url(#clip0_13556_34332)">
<path d="M13.8609 9.18323C13.8609 10.3738 12.8959 11.3392 11.7049 11.3392H0V2.81708C0 1.62619 0.964993 0.660767 2.15612 0.660767H13.8608L13.8607 9.18321L13.8609 9.18323Z" fill="white"/>
<path d="M10.0449 6.18695C10.3793 6.19422 10.7155 6.17219 11.0485 6.19839C11.3857 6.2613 11.467 6.77181 11.1674 6.939C10.963 7.04915 10.7201 6.98003 10.4985 6.99945H10.0449V6.18695ZM11.2418 5.2673C11.3161 5.52948 11.0633 5.76487 10.8108 5.72877H10.0449C10.0503 5.48153 10.0344 5.21317 10.0527 4.97895C10.3595 4.98759 10.6692 4.96132 10.9742 4.99268C11.1053 5.02561 11.2149 5.13335 11.2418 5.2673ZM13.0849 1.37929C13.0992 1.87998 13.087 2.40714 13.0911 2.91799C13.0901 4.99491 13.0931 7.07178 13.0895 9.14882C13.076 9.92719 12.3862 10.6035 11.6132 10.6191C10.8395 10.6222 10.0656 10.6196 9.29175 10.6204V7.48055C10.1349 7.4762 10.9785 7.48939 11.8213 7.47397C12.2122 7.44942 12.6405 7.19145 12.6587 6.7612C12.7047 6.32908 12.2973 6.0302 11.9105 5.98299C11.7618 5.97913 11.7662 5.93965 11.9105 5.92243C12.2794 5.84269 12.5691 5.46087 12.4606 5.07848C12.3681 4.67629 11.9236 4.52063 11.5538 4.5214C10.7999 4.51628 10.0459 4.52068 9.29192 4.5192C9.29678 3.93302 9.28176 3.34621 9.30002 2.76046C9.35975 1.99614 10.0669 1.36582 10.8291 1.37949C11.5811 1.37938 12.3331 1.37938 13.0849 1.37935V1.37929Z" fill="url(#paint0_linear_13556_34332)"/>
<path d="M0.772037 2.83965C0.791291 2.0625 1.48407 1.3917 2.25606 1.38034C3.02694 1.37797 3.79793 1.38 4.56881 1.37931C4.56669 3.97947 4.57299 6.57992 4.56564 9.17994C4.53594 9.94764 3.85072 10.6057 3.08713 10.6192C2.3148 10.622 1.54237 10.6196 0.770006 10.6204V7.37469C1.52023 7.55192 2.30696 7.62736 3.07231 7.50981C3.52981 7.4362 4.03036 7.21153 4.18525 6.7369C4.29923 6.3309 4.23506 5.90362 4.25202 5.48693V4.51922H2.92749C2.92154 5.15924 2.93968 5.80037 2.91791 6.43962C2.88221 6.83254 2.49309 7.08218 2.12251 7.06885C1.66293 7.07372 0.752211 6.73578 0.752211 6.73578C0.749922 5.53665 0.765543 4.03492 0.772037 2.83976V2.83965Z" fill="url(#paint1_linear_13556_34332)"/>
<path d="M5.0628 4.90957C4.99308 4.92436 5.04878 4.67208 5.03096 4.57638C5.03571 3.97129 5.02103 3.36555 5.03905 2.76089C5.09862 1.99333 5.81124 1.36144 6.57645 1.3794H8.82994C8.82782 3.97956 8.83409 6.58001 8.82676 9.18003C8.79704 9.94773 8.11176 10.6057 7.34816 10.6193C6.57579 10.6223 5.80335 10.6198 5.03093 10.6205V7.06439C5.55845 7.49723 6.27543 7.5646 6.93264 7.56577C7.42809 7.5656 7.92065 7.48921 8.4018 7.37495V6.72346C7.85957 6.9937 7.22216 7.16536 6.62108 7.01009C6.20179 6.90573 5.89741 6.5005 5.90419 6.06779C5.85562 5.61779 6.11939 5.1427 6.5616 5.00893C7.11064 4.83704 7.70903 4.9685 8.22368 5.19197C8.33394 5.2497 8.44586 5.32131 8.40177 5.13701V4.62493C7.54104 4.42015 6.62503 4.34479 5.76029 4.56757C5.50999 4.63818 5.26613 4.74526 5.0628 4.90962V4.90957Z" fill="url(#paint2_linear_13556_34332)"/>
</g>
<defs>
<linearGradient id="paint0_linear_13556_34332" x1="9.26581" y1="5.80227" x2="13.0671" y2="5.80227" gradientUnits="userSpaceOnUse">
<stop stop-color="#007B40"/>
<stop offset="1" stop-color="#55B330"/>
</linearGradient>
<linearGradient id="paint1_linear_13556_34332" x1="0.689181" y1="6.08836" x2="4.50653" y2="6.08836" gradientUnits="userSpaceOnUse">
<stop stop-color="#1D2970"/>
<stop offset="1" stop-color="#006DBA"/>
</linearGradient>
<linearGradient id="paint2_linear_13556_34332" x1="5.02536" y1="5.89191" x2="8.82923" y2="5.89191" gradientUnits="userSpaceOnUse">
<stop stop-color="#6E2B2F"/>
<stop offset="1" stop-color="#E30138"/>
</linearGradient>
<clipPath id="clip0_13556_34332">
<rect width="13.8609" height="12" fill="white"/>
</clipPath>
</defs>
</svg>
