<svg width="24" height="24" viewBox="0 0 24 24" fill="none" xmlns="http://www.w3.org/2000/svg">
<path d="M12.3076 2C14.4979 1.99999 16.2183 2.00012 17.5615 2.18066C18.9382 2.36575 20.0305 2.75313 20.8887 3.61133C21.7469 4.46953 22.1342 5.56182 22.3193 6.93848C22.4999 8.28174 22.5 10.0021 22.5 12.1924V12.3076C22.5 14.4979 22.4999 16.2183 22.3193 17.5615C22.1342 18.9382 21.7469 20.0305 20.8887 20.8887C20.0305 21.7469 18.9382 22.1342 17.5615 22.3193C16.2183 22.4999 14.4979 22.5 12.3076 22.5H12.1924C10.0021 22.5 8.28174 22.4999 6.93848 22.3193C5.56182 22.1342 4.46953 21.7469 3.61133 20.8887C2.75313 20.0305 2.36575 18.9382 2.18066 17.5615C2.00012 16.2183 1.99999 14.4979 2 12.3076V12.1924C1.99999 10.0021 2.00012 8.28174 2.18066 6.93848C2.36575 5.56182 2.75313 4.46953 3.61133 3.61133C4.46953 2.75313 5.56182 2.36575 6.93848 2.18066C8.28174 2.00012 10.0021 1.99999 12.1924 2H12.3076ZM6.95801 14.7275C6.7272 14.7735 6.51505 14.8873 6.34863 15.0537C6.18222 15.2201 6.06841 15.4323 6.02246 15.6631C5.9766 15.8938 6.00086 16.1332 6.09082 16.3506C6.18091 16.568 6.33359 16.755 6.5293 16.8857C6.72486 17.0163 6.9553 17.0859 7.19043 17.0859C7.50597 17.0858 7.8091 16.9604 8.03223 16.7373C8.25535 16.5142 8.38076 16.211 8.38086 15.8955C8.38081 15.6604 8.3112 15.4299 8.18066 15.2344C8.0499 15.0387 7.86296 14.886 7.64551 14.7959C7.42816 14.7059 7.18873 14.6817 6.95801 14.7275ZM10.3936 15.1533C10.2963 15.1534 10.1993 15.1728 10.1094 15.21C10.0195 15.2473 9.93795 15.3023 9.86914 15.3711C9.80033 15.4399 9.7453 15.5215 9.70801 15.6113C9.67083 15.7012 9.6514 15.7982 9.65137 15.8955C9.65141 15.9929 9.67076 16.0898 9.70801 16.1797C9.74529 16.2696 9.80034 16.3511 9.86914 16.4199C9.93794 16.4887 10.0195 16.5438 10.1094 16.5811C10.1993 16.6182 10.2963 16.6377 10.3936 16.6377H15.6641C15.8608 16.6377 16.0493 16.5589 16.1885 16.4199C16.3274 16.2808 16.4062 16.0921 16.4062 15.8955C16.4062 15.6988 16.3275 15.5102 16.1885 15.3711C16.0493 15.232 15.8608 15.1533 15.6641 15.1533H10.3936ZM6.95898 10.875C6.72826 10.921 6.51596 11.0348 6.34961 11.2012C6.18324 11.3676 6.06936 11.5797 6.02344 11.8105C5.97758 12.0412 6.00092 12.2807 6.09082 12.498C6.18079 12.7153 6.33388 12.9014 6.5293 13.0322C6.72477 13.1629 6.95532 13.2332 7.19043 13.2334C7.34677 13.2335 7.50203 13.2024 7.64648 13.1426C7.79102 13.0827 7.92261 12.9944 8.0332 12.8838C8.14366 12.7732 8.23128 12.6415 8.29102 12.4971C8.35064 12.3527 8.38095 12.1981 8.38086 12.042C8.38063 11.8068 8.31141 11.5763 8.18066 11.3809C8.04979 11.1853 7.86293 11.0333 7.64551 10.9434C7.4283 10.8536 7.1895 10.8292 6.95898 10.875ZM10.3936 11.2998C10.1969 11.2999 10.0082 11.3777 9.86914 11.5166C9.72995 11.6558 9.65137 11.8452 9.65137 12.042C9.6515 12.2387 9.73007 12.4273 9.86914 12.5664C10.0082 12.7053 10.1969 12.7841 10.3936 12.7842H16.9736C17.1703 12.7841 17.3589 12.7054 17.498 12.5664C17.6371 12.4273 17.7157 12.2387 17.7158 12.042C17.7158 11.8452 17.6372 11.6558 17.498 11.5166C17.3589 11.3776 17.1703 11.2999 16.9736 11.2998H10.3936ZM6.95801 7.02246C6.7272 7.06841 6.51505 7.18222 6.34863 7.34863C6.18222 7.51505 6.06841 7.7272 6.02246 7.95801C5.9766 8.18873 6.00086 8.42815 6.09082 8.64551C6.18091 8.86296 6.33359 9.0499 6.5293 9.18066C6.72486 9.3112 6.9553 9.38081 7.19043 9.38086C7.50597 9.38076 7.8091 9.25535 8.03223 9.03223C8.25535 8.8091 8.38076 8.50597 8.38086 8.19043C8.38081 7.9553 8.3112 7.72486 8.18066 7.5293C8.0499 7.33359 7.86296 7.18091 7.64551 7.09082C7.42816 7.00086 7.18873 6.9766 6.95801 7.02246ZM10.3936 7.44727C10.197 7.44733 10.0082 7.52518 9.86914 7.66406C9.72998 7.80322 9.6514 7.99266 9.65137 8.18945C9.65148 8.38614 9.73005 8.57478 9.86914 8.71387C10.0082 8.85287 10.1969 8.93157 10.3936 8.93164H17.9502C18.1469 8.93157 18.3355 8.85293 18.4746 8.71387C18.6137 8.57478 18.6923 8.38614 18.6924 8.18945C18.6924 7.99267 18.6138 7.80322 18.4746 7.66406C18.3355 7.52514 18.1468 7.44733 17.9502 7.44727H10.3936Z" fill="currentColor"/>
</svg>
