<svg width="18" height="12" viewBox="0 0 18 12" fill="none" xmlns="http://www.w3.org/2000/svg">
<g clip-path="url(#clip0_13556_34320)">
<path d="M11.2621 1.64976L6.51807 1.66608L6.66182 10.3513L11.4059 10.335L11.2621 1.64976Z" fill="#FF5F00"/>
<path d="M6.83027 6.02578C6.80092 4.25947 7.59217 2.69003 8.83152 1.67202C7.89604 0.937944 6.72325 0.496516 5.45192 0.500871C2.44009 0.511186 0.0444658 2.99236 0.0952585 6.04885C0.146051 9.10533 2.62386 11.5698 5.6357 11.5595C6.90703 11.5551 8.06501 11.1057 8.97598 10.3653C7.7032 9.37129 6.85963 7.79209 6.83027 6.02578Z" fill="#EB001B"/>
<path d="M17.8282 5.9513C17.879 9.00778 15.4833 11.489 12.4715 11.4993C11.2002 11.5036 10.0274 11.0622 9.09191 10.3281C10.3464 9.31006 11.1225 7.74067 11.0932 5.97436C11.0638 4.20805 10.2205 2.64421 8.94745 1.63481C9.85842 0.894405 11.0164 0.444995 12.2877 0.440641C15.2996 0.430326 17.7776 2.91017 17.8282 5.9513Z" fill="#F79E1B"/>
</g>
<defs>
<clipPath id="clip0_13556_34320">
<rect width="17.9235" height="12" fill="white"/>
</clipPath>
</defs>
</svg>
