<svg width="24" height="24" viewBox="0 0 24 24" fill="none" xmlns="http://www.w3.org/2000/svg">
<path d="M12 1.24999C17.9047 1.24999 22.7498 5.83821 22.75 11.5664C22.75 17.2947 17.9048 21.8838 12 21.8838C11.3041 21.8846 10.6101 21.8197 9.92676 21.6914C9.68971 21.6469 9.53884 21.6189 9.42676 21.6035C9.3432 21.5908 9.25908 21.6215 9.22754 21.6387C9.11308 21.693 8.96086 21.7743 8.72754 21.8984C7.29582 22.6598 5.62475 22.9295 4.01367 22.6299C3.75368 22.5814 3.53849 22.3996 3.44727 22.1514C3.3561 21.903 3.40245 21.6252 3.56934 21.4199C4.03711 20.8445 4.35873 20.1514 4.50098 19.4053C4.53946 19.2001 4.45228 18.9213 4.18457 18.6494C2.36977 16.8066 1.25 14.3141 1.25 11.5664C1.25018 5.83821 6.09534 1.24999 12 1.24999ZM8 11C7.44772 11 7 11.4477 7 12C7 12.5523 7.44772 13 8 13H8.00879C8.56107 13 9.00879 12.5523 9.00879 12C9.00879 11.4477 8.56107 11 8.00879 11H8ZM11.9951 11C11.443 11.0002 10.9951 11.4478 10.9951 12C10.9951 12.5521 11.443 12.9998 11.9951 13H12.0049C12.557 12.9998 13.0049 12.5521 13.0049 12C13.0049 11.4478 12.557 11.0002 12.0049 11H11.9951ZM15.9912 11C15.4389 11 14.9912 11.4477 14.9912 12C14.9912 12.5523 15.4389 13 15.9912 13H16C16.5523 13 17 12.5523 17 12C17 11.4477 16.5523 11 16 11H15.9912Z" fill="currentColor"/>
</svg>
