<svg width="20" height="12" viewBox="0 0 20 12" fill="none" xmlns="http://www.w3.org/2000/svg">
<g clip-path="url(#clip0_13556_34307)">
<path d="M17.9439 3.10284H14.0935C14.3178 4.37388 15.5514 5.57014 16.8972 5.57014H19.9626C20 5.45799 20 5.27107 20 5.15892C20 4.03743 19.0654 3.10284 17.9439 3.10284Z" fill="url(#paint0_linear_13556_34307)"/>
<path d="M14.4299 5.79437V8.89718H16.2991V7.25232H17.944C18.8412 7.25232 19.6262 6.6168 19.8879 5.79437H14.4299Z" fill="#4FAD50"/>
<path d="M7.85048 3.10284V8.85987H9.49535C9.49535 8.85987 9.90656 8.85987 10.1309 8.44865C11.2524 6.24304 11.5888 5.57014 11.5888 5.57014H11.8131V8.85987H13.6823V3.10284H12.0374C12.0374 3.10284 11.6262 3.14023 11.4019 3.51406C10.4673 5.42061 9.94394 6.39257 9.94394 6.39257H9.71964V3.10284H7.85048Z" fill="#4FAD50"/>
<path d="M0 8.89716V3.14014H1.86916C1.86916 3.14014 2.39253 3.14014 2.6916 3.96257C3.43926 6.1308 3.51404 6.42986 3.51404 6.42986C3.51404 6.42986 3.66356 5.9065 4.33646 3.96257C4.63553 3.14014 5.1589 3.14014 5.1589 3.14014H7.02806V8.89716H5.1589V5.79435H4.9346L3.88787 8.89716H3.06543L2.01871 5.79435H1.7944V8.89716H0Z" fill="#4FAD50"/>
</g>
<defs>
<linearGradient id="paint0_linear_13556_34307" x1="14.0868" y1="4.35418" x2="19.9868" y2="4.35418" gradientUnits="userSpaceOnUse">
<stop stop-color="#27B1E6"/>
<stop offset="1" stop-color="#148ACA"/>
</linearGradient>
<clipPath id="clip0_13556_34307">
<rect width="20" height="12" fill="white"/>
</clipPath>
</defs>
</svg>
