<svg width="24" height="32" viewBox="0 0 24 32" fill="none" xmlns="http://www.w3.org/2000/svg">
<path d="M13.4764 8.01504C13.508 7.74436 13.7218 7.51128 14.1176 7.31579C14.5293 7.10526 14.9251 7 15.3051 7C15.8118 7 16.0414 7.16541 15.9939 7.49624C15.7247 10.188 15.3764 13.0827 14.9489 16.1805L15.4239 16.2481C15.7722 16.2932 15.9464 16.4662 15.9464 16.7669C15.9464 16.9023 15.8989 17.0526 15.8039 17.218C15.6139 17.5038 15.2497 17.6917 14.7114 17.782C14.4264 19.812 14.1176 21.8722 13.7851 23.9624C13.7376 24.2481 13.508 24.4962 13.0964 24.7068C12.7005 24.9023 12.3047 25 11.9088 25C11.6713 25 11.4893 24.9549 11.3626 24.8647C11.2359 24.7744 11.1884 24.6391 11.2201 24.4586C11.4893 22.7293 11.8297 20.4586 12.2413 17.6466C11.4813 17.6015 10.3413 17.5489 8.82131 17.4887C7.49129 17.4436 6.16128 17.3759 4.83126 17.2857C4.57792 17.2707 4.37209 17.2105 4.21375 17.1053C4.07125 17 4 16.8647 4 16.6992C4 16.5038 4.11875 16.2932 4.35625 16.0677C5.06876 15.4662 6.48586 14.2105 8.60755 12.3008C10.4284 10.6165 12.0513 9.18797 13.4764 8.01504ZM7.32504 15.7293C7.80005 15.7594 8.48089 15.7895 9.36756 15.8195C10.7134 15.8797 11.7505 15.9323 12.4789 15.9774C12.6689 14.5789 12.9143 12.7143 13.2151 10.3835L11.0063 12.391C9.67632 13.6241 8.44922 14.7368 7.32504 15.7293Z" fill="currentColor"/>
</svg>
