<svg width="24" height="32" viewBox="0 0 24 32" fill="none" xmlns="http://www.w3.org/2000/svg">
<path d="M15.1795 23.3857C15.4188 23.371 15.6154 23.4079 15.7692 23.4963C15.9231 23.5848 16 23.7174 16 23.8943C16 23.9828 15.9915 24.0491 15.9744 24.0934C15.906 24.3145 15.7094 24.4914 15.3846 24.6241C15.0769 24.742 14.7521 24.8157 14.4103 24.8452C13.1966 24.9484 11.8889 25 10.4872 25C9.32479 25 8.01709 24.9631 6.5641 24.8894C6.18803 24.8747 6 24.7715 6 24.5799C6 24.3735 6.20513 24.1376 6.61538 23.8722C7.04273 23.5921 7.41026 23.4521 7.71795 23.4521C8.19658 23.4668 8.90598 23.4742 9.84615 23.4742C10.1197 21.9558 10.3675 20.629 10.5897 19.4939C10.812 18.3587 11 17.4079 11.1538 16.6413L11.7692 13.5012L11.5641 13.7887C11.3761 14.0246 11.1197 14.2236 10.7949 14.3857C10.4872 14.5332 10.1709 14.5995 9.84615 14.5848C9.62393 14.5848 9.40171 14.5405 9.17949 14.4521C8.97436 14.3636 8.87179 14.2457 8.87179 14.0983C8.87179 14.0541 8.90598 13.973 8.97436 13.855C10.2222 12.145 11.5043 10.1179 12.8205 7.77396C12.9231 7.59705 13.1795 7.42752 13.5897 7.26536C14.0171 7.08845 14.4017 7 14.7436 7C15.2393 7 15.453 7.18427 15.3846 7.55282C14.7692 10.5307 14.0769 14.2826 13.3077 18.8084L12.4872 23.43C13.0855 23.43 13.9829 23.4152 15.1795 23.3857Z" fill="currentColor"/>
</svg>
