<svg width="24" height="32" viewBox="0 0 24 32" fill="none" xmlns="http://www.w3.org/2000/svg">
<path d="M14.3716 13.4158C16.0479 13.5644 17.3089 14.1658 18.1544 15.2203C18.7181 15.9035 19 16.7054 19 17.6262C19 18.25 18.8739 18.8812 18.6217 19.5198C18.3695 20.1584 18.0358 20.7673 17.6204 21.3465C16.8045 22.4455 15.818 23.3292 14.6609 23.9975C13.5038 24.6658 12.2874 25 11.0116 25C10.7742 25 10.5962 24.9926 10.4775 24.9777C9.11276 24.8738 7.94083 24.3911 6.96175 23.5297C5.98267 22.6683 5.33737 21.5619 5.02584 20.2104C4.93683 19.8985 5.07776 19.6163 5.44863 19.3639C5.81949 19.1114 6.19777 18.9851 6.58347 18.9851C6.984 18.9851 7.21394 19.1188 7.27328 19.3861C7.52546 20.3812 7.95567 21.2351 8.56389 21.948C9.18694 22.6609 9.97317 23.1139 10.9226 23.3069C11.1896 23.3515 11.4492 23.3738 11.7014 23.3738C12.5321 23.3738 13.3109 23.1213 14.0378 22.6163C14.7647 22.1114 15.3952 21.4579 15.9292 20.6559C16.4781 19.8094 16.7526 18.9777 16.7526 18.1609C16.7526 17.3589 16.493 16.6906 15.9737 16.1559C15.2172 15.3391 14.0823 14.9307 12.5692 14.9307C11.9758 14.9307 11.4047 14.9752 10.8558 15.0644C10.7223 15.1089 10.522 15.1609 10.255 15.2203C10.0918 15.2649 9.95092 15.2871 9.83224 15.2871C9.58005 15.2871 9.40945 15.2054 9.32045 15.0421C9.24627 14.953 9.23886 14.8416 9.2982 14.7079C9.32786 14.5297 9.40946 14.3589 9.54297 14.1955C9.69131 14.0322 9.86933 13.9059 10.077 13.8168L10.9226 13.4604C12.0648 12.9554 12.9623 12.5248 13.6151 12.1683C13.7041 12.1089 14.0304 11.9233 14.5941 11.6114C15.1727 11.2995 15.6696 10.9505 16.085 10.5644C16.5004 10.1634 16.7006 9.79208 16.6858 9.4505C16.671 8.81188 16.2185 8.49257 15.3284 8.49257C14.7202 8.49257 13.9711 8.63366 13.081 8.91584C12.2058 9.19802 11.375 9.52475 10.5888 9.89604C9.80257 10.2525 9.27594 10.5272 9.00892 10.7203C8.57872 11.0173 8.17819 11.1658 7.80732 11.1658C7.70348 11.1658 7.59222 11.1436 7.47354 11.099C7.20652 10.995 7.07301 10.8465 7.07301 10.6535C7.07301 10.5347 7.13977 10.4084 7.27328 10.2748C8.54905 9.02723 10.574 8.05446 13.348 7.35644C14.2381 7.11881 15.1059 7 15.9515 7C17.3904 7 18.3176 7.43812 18.733 8.31436C18.8368 8.53713 18.8887 8.77475 18.8887 9.02723C18.8887 9.66584 18.5772 10.2748 17.9542 10.854C17.3459 11.4332 16.6339 11.9827 15.818 12.5025C15.3136 12.8441 14.8315 13.1485 14.3716 13.4158Z" fill="currentColor"/>
</svg>
