<svg width="24" height="32" viewBox="0 0 24 32" fill="none" xmlns="http://www.w3.org/2000/svg">
<path d="M9.45234 21.5214C8.62628 22.4364 8.12924 22.9898 7.96123 23.1817C8.8993 23.1079 10.0404 23.071 11.3845 23.071C12.8546 23.071 14.2267 23.1226 15.5008 23.2259C15.6268 23.0784 15.8018 22.9603 16.0258 22.8718C16.2639 22.7684 16.4949 22.7168 16.7189 22.7168C17.0689 22.7168 17.3139 22.8349 17.454 23.071L17.916 23.7793C17.972 23.8974 18 23.9786 18 24.0228C18 24.1999 17.909 24.3696 17.727 24.532C17.559 24.6796 17.3559 24.7976 17.1179 24.8862C16.8939 24.9747 16.7189 25.0116 16.5929 24.9968C14.5207 24.805 12.5536 24.7091 10.6914 24.7091C8.99731 24.7091 7.46419 24.7902 6.09208 24.9526C5.84007 24.9821 5.59505 24.9452 5.35703 24.8419C5.11901 24.7386 5 24.5836 5 24.377C5 24.2442 5.049 24.104 5.14701 23.9564C5.65105 23.2186 6.40011 22.3405 7.39418 21.3222C7.5342 21.1599 7.69521 20.9828 7.87722 20.7909C8.05924 20.5991 8.25525 20.3851 8.46527 20.149C10.5514 17.8025 12.1756 15.825 13.3376 14.2164L13.6317 13.7959C14.1777 13.058 14.6397 12.3644 15.0178 11.715C15.3958 11.0509 15.5848 10.4459 15.5848 9.89986C15.5848 9.66374 15.5428 9.44975 15.4588 9.25791C15.3468 9.02179 15.1578 8.85207 14.8918 8.74877C14.6397 8.63071 14.3527 8.57168 14.0307 8.57168C13.6247 8.57168 13.2746 8.63071 12.9806 8.74877C12.3786 8.98489 11.8465 9.39072 11.3845 9.96627C10.9365 10.5418 10.4394 11.3018 9.89338 12.2463C9.78137 12.4086 9.67636 12.5784 9.57835 12.7554C9.48034 12.9325 9.37534 13.1022 9.26333 13.2646C9.16532 13.3974 8.96231 13.5155 8.65428 13.6188C8.36026 13.7221 8.07324 13.7737 7.79322 13.7737C7.35918 13.7737 7.14217 13.663 7.14217 13.4417C7.14217 13.3679 7.17017 13.2793 7.22617 13.176C7.95423 11.9364 8.63328 10.8886 9.26333 10.0327C9.90738 9.17674 10.6634 8.461 11.5315 7.88545C12.4136 7.29515 13.4006 7 14.4927 7C14.7728 7 15.0598 7.02214 15.3538 7.06641C16.8379 7.28777 17.58 8.01089 17.58 9.23577C17.58 10.0474 17.3139 10.9476 16.7819 11.9364C16.2639 12.9104 15.6478 13.8992 14.9338 14.9027C13.7297 16.5703 12.2036 18.4519 10.3554 20.5474L9.45234 21.5214Z" fill="currentColor"/>
</svg>
