<svg width="24" height="24" viewBox="0 0 24 24" fill="none" xmlns="http://www.w3.org/2000/svg">
<path fill-rule="evenodd" clip-rule="evenodd" d="M15.496 1.25012C16.8266 1.24865 17.8636 1.24805 18.7587 2.06653C19.1802 2.4521 19.4408 2.84534 19.5809 3.32629C19.6274 3.4858 19.6583 3.65161 19.6805 3.82043C19.7035 3.99454 19.7122 4.00012 19.8827 4.00012H20.077C20.516 3.99999 20.9579 4.00012 21.3241 4.05969C21.7585 4.13041 22.216 4.3026 22.5721 4.73547C22.9078 5.14357 23.0103 5.59072 22.9989 6.03235C22.9887 6.42598 22.897 6.81413 22.8143 7.19739C22.4362 8.95257 21.6115 10.5168 20.4696 11.6964C20.0855 12.0932 19.4523 12.103 19.0555 11.7189C18.6588 11.3347 18.648 10.7016 19.0321 10.3048C19.897 9.41133 20.5535 8.19033 20.8583 6.77551C20.904 6.56312 20.9398 6.4009 20.9647 6.26086C20.9928 6.09872 20.9895 6.02537 20.8114 6.01379C20.4974 5.9934 20.1816 6.00109 19.8671 6.0011C19.6998 6.0011 19.691 6.00691 19.6659 6.1759C19.1613 9.57436 16.4296 12.245 12.9989 12.6847V17.3536C14.5505 17.6799 15.8362 18.7499 16.5507 20.1681C17.1482 21.3546 16.3113 22.7501 15.0399 22.7501H8.95788C7.68648 22.7501 6.84962 21.3546 7.44714 20.1681C8.16154 18.7499 9.44733 17.6799 10.9989 17.3536V12.6847C7.56912 12.2443 4.8384 9.57373 4.33385 6.1759C4.30876 6.00691 4.2999 6.0011 4.13268 6.0011C3.81815 6.00109 3.50236 5.9934 3.18835 6.01379C3.02033 6.02472 3.00011 6.04959 3.02819 6.21692C3.2901 7.7288 3.88798 9.18945 4.96764 10.3048C5.35169 10.7016 5.34092 11.3348 4.94421 11.7189C4.54742 12.103 3.91428 12.0931 3.53014 11.6964C2.31652 10.4427 1.53881 8.8334 1.17272 7.13684C1.09463 6.77527 1.00992 6.38183 1.00085 6.03235C0.989403 5.59072 1.09195 5.14357 1.4276 4.73547C1.78374 4.3026 2.24126 4.13041 2.67565 4.05969C3.04184 4.00012 3.48376 3.99999 3.92272 4.00012H4.11706C4.28756 4.00011 4.29626 3.99455 4.31921 3.82043C4.34145 3.65161 4.37234 3.4858 4.41882 3.32629C4.55894 2.84533 4.81952 2.4521 5.24108 2.06653C6.13619 1.24805 7.17317 1.24865 8.50378 1.25012H15.496Z" fill="currentColor"/>
</svg>
