<svg width="24" height="24" viewBox="0 0 24 24" fill="none" xmlns="http://www.w3.org/2000/svg">
<path d="M9.81311 9.66977C9.60825 9.66977 9.40481 9.60558 9.23088 9.47923C8.92314 9.25561 8.7719 8.88381 8.83622 8.50891L9.16553 6.58887L7.77056 5.2291C7.49819 4.96359 7.40195 4.57393 7.5195 4.21214C7.63705 3.85031 7.94393 3.59161 8.32039 3.53696L10.2482 3.25682L11.1103 1.50994C11.2787 1.16877 11.6196 0.956879 12 0.956879C12.3804 0.956879 12.7213 1.16877 12.8897 1.5099L13.7518 3.25678L15.6796 3.53691C16.0561 3.59161 16.3629 3.85031 16.4805 4.2121C16.598 4.57389 16.5018 4.96355 16.2294 5.22906L14.8344 6.58883L15.1638 8.50886C15.2281 8.88377 15.0768 9.25561 14.7691 9.47919C14.4613 9.70282 14.061 9.73167 13.7243 9.55472L12 8.64824L10.2757 9.55481C10.1331 9.63013 9.97434 9.66958 9.81311 9.66977Z" fill="currentColor"/>
<path d="M6.36813 11.4723C6.21934 11.4721 6.07283 11.4357 5.94128 11.3662L4.66706 10.6962L3.39283 11.3662C3.08215 11.5294 2.71272 11.5027 2.4288 11.2965C2.14482 11.0902 2.00527 10.7471 2.06463 10.4012L2.30801 8.98228L1.27712 7.97744C1.0258 7.73246 0.937025 7.37292 1.04547 7.03912C1.15392 6.70532 1.43703 6.46656 1.78437 6.41605L3.20906 6.20903L3.84615 4.91811C4.00153 4.60333 4.31605 4.40784 4.66706 4.40784C5.01806 4.40784 5.33258 4.60333 5.48791 4.91811L6.12501 6.20903L7.54961 6.41605C7.89704 6.46656 8.18019 6.70532 8.2886 7.03912C8.397 7.37292 8.30827 7.73246 8.05695 7.97744L7.0261 8.98228L7.26948 10.4011C7.32879 10.7471 7.18929 11.0902 6.90531 11.2965C6.74489 11.4131 6.55711 11.4723 6.36813 11.4723ZM21.034 11.4723C20.8852 11.4721 20.7387 11.4357 20.6072 11.3662L19.3329 10.6962L18.0587 11.3662C17.748 11.5294 17.3786 11.5027 17.0947 11.2965C16.8107 11.0902 16.6711 10.7471 16.7305 10.4012L16.9739 8.98228L15.943 7.97744C15.6917 7.73246 15.6029 7.37292 15.7114 7.03912C15.8198 6.70532 16.1029 6.46656 16.4503 6.41605L17.875 6.20903L18.5121 4.91811C18.6674 4.60333 18.9819 4.40784 19.3329 4.40784C19.6839 4.40784 19.9984 4.60333 20.1538 4.91811L20.7909 6.20903L22.2155 6.41605C22.563 6.46656 22.8461 6.70532 22.9545 7.03912C23.063 7.37292 22.9742 7.73246 22.7229 7.97744L21.692 8.98228L21.9354 10.4011C21.9947 10.7471 21.8552 11.0902 21.5712 11.2965C21.4107 11.4131 21.223 11.4723 21.034 11.4723ZM6.55651 18.6926C5.9431 19.2511 5.12828 19.5921 4.2353 19.5921C3.34231 19.5921 2.52749 19.2511 1.91408 18.6926C1.36132 19.0831 1.00001 19.7266 1.00001 20.4549V22.396C1.00001 22.7534 1.28971 23.0431 1.64706 23.0431H6.82353C7.18088 23.0431 7.47058 22.7534 7.47058 22.396V20.4549C7.47058 19.7266 7.10927 19.0831 6.55651 18.6926ZM4.2353 18.298C3.046 18.298 2.07844 17.3304 2.07844 16.1412C2.07844 14.9519 3.046 13.9843 4.2353 13.9843C5.42459 13.9843 6.39215 14.9519 6.39215 16.1412C6.39215 17.3304 5.42459 18.298 4.2353 18.298ZM22.0859 18.6926C21.4725 19.2511 20.6577 19.5921 19.7647 19.5921C18.8717 19.5921 18.0569 19.2511 17.4435 18.6926C16.8907 19.0831 16.5294 19.7266 16.5294 20.4549V22.396C16.5294 22.7534 16.8191 23.0431 17.1765 23.0431H22.3529C22.7103 23.0431 23 22.7534 23 22.396V20.4549C23 19.7266 22.6387 19.0831 22.0859 18.6926ZM19.7647 18.298C18.5754 18.298 17.6078 17.3304 17.6078 16.1412C17.6078 14.9519 18.5754 13.9843 19.7647 13.9843C20.954 13.9843 21.9215 14.9519 21.9215 16.1412C21.9215 17.3304 20.954 18.298 19.7647 18.298ZM14.3212 18.6926C13.7078 19.2511 12.893 19.5921 12 19.5921C11.107 19.5921 10.2922 19.2511 9.67878 18.6926C9.12602 19.0831 8.7647 19.7266 8.7647 20.4549V22.396C8.7647 22.7534 9.05441 23.0431 9.41176 23.0431H14.5882C14.9456 23.0431 15.2353 22.7534 15.2353 22.396V20.4549C15.2353 19.7266 14.874 19.0831 14.3212 18.6926ZM12 18.298C10.8107 18.298 9.84313 17.3304 9.84313 16.1412C9.84313 14.9519 10.8107 13.9843 12 13.9843C13.1893 13.9843 14.1568 14.9519 14.1568 16.1412C14.1568 17.3304 13.1893 18.298 12 18.298Z" fill="currentColor"/>
</svg>
