<svg width="24" height="24" viewBox="0 0 24 24" fill="none" xmlns="http://www.w3.org/2000/svg">
<path d="M9.26283 19.2885C10.9168 18.7371 13.0832 18.7372 14.7372 19.2885C15.0873 19.4052 15.3005 19.7592 15.2398 20.1233L15.2396 20.1245C15.2394 20.5184 14.8757 21.3149 14.6939 21.6639C14.2751 22.4536 13.5063 23.4098 12.175 23.7293C12.06 23.7569 11.94 23.7569 11.825 23.7293C10.4937 23.4098 9.72494 22.4536 9.30616 21.6639C9.02694 21.2125 8.82585 20.4487 8.76021 20.1233C8.69954 19.7593 8.91272 19.4052 9.26283 19.2885Z" fill="currentColor"/>
<path d="M21.5242 18.6097C21.7411 18.766 22.0248 18.7951 22.2688 18.686C22.5129 18.5769 22.6804 18.3461 22.7086 18.0803L22.7092 18.0773C22.7756 17.857 22.7463 17.3876 22.7233 17.1801C22.7 16.6558 22.6176 15.9372 22.3763 15.1742C22.1 14.3004 21.6105 13.3639 20.7743 12.6043C20.4634 12.3219 20.308 12.1807 20.1358 12.2464C19.9637 12.312 19.9393 12.5427 19.8906 13.0043C19.7611 14.2306 19.5133 15.5371 19.1297 16.9261C19.0498 17.2155 19.0098 17.3602 19.0695 17.4676C19.1293 17.5749 19.2778 17.6185 19.5748 17.7057C20.2893 17.9155 20.9685 18.2092 21.5242 18.6097Z" fill="currentColor"/>
<path d="M2.47578 18.6097C2.25891 18.766 1.97524 18.795 1.73119 18.6859C1.48715 18.5769 1.31961 18.3461 1.29145 18.0803L1.29083 18.0772C1.22443 17.8569 1.25368 17.3876 1.27667 17.18C1.30002 16.6558 1.38243 15.9371 1.62372 15.1742C1.90004 14.3004 2.38948 13.3639 3.22562 12.6043C3.5365 12.3219 3.69194 12.1807 3.8641 12.2464C4.03627 12.312 4.06064 12.5427 4.10938 13.0043C4.23888 14.2306 4.48669 15.5371 4.87026 16.926C4.95019 17.2155 4.99016 17.3602 4.93041 17.4676C4.87066 17.5749 4.72214 17.6185 4.42511 17.7057C3.7107 17.9154 3.03153 18.2092 2.47578 18.6097Z" fill="currentColor"/>
<path fill-rule="evenodd" clip-rule="evenodd" d="M11.7592 0.289327C11.9152 0.236477 12.0846 0.236491 12.2406 0.289327C13.9946 0.883407 16.2774 2.5089 17.6225 5.44167C18.9747 8.39015 19.3443 12.5791 17.4154 18.2415C17.3417 18.458 17.1729 18.6294 16.9574 18.7063C16.7421 18.7831 16.5031 18.7578 16.309 18.637C15.8685 18.3626 14.2709 17.6878 12.0004 17.6878C9.72965 17.6878 8.13129 18.3625 7.69082 18.637C7.4967 18.7577 7.25772 18.7831 7.04239 18.7063C6.827 18.6294 6.65813 18.458 6.58438 18.2415C4.65557 12.5792 5.02513 8.39014 6.37735 5.44167C7.72242 2.50891 10.0053 0.883434 11.7592 0.289327ZM12.0004 5.50026C10.6197 5.50026 9.5004 6.61955 9.5004 8.00026C9.50055 9.38085 10.6198 10.5003 12.0004 10.5003C13.3808 10.5001 14.5002 9.38072 14.5004 8.00026C14.5004 6.61968 13.3809 5.50048 12.0004 5.50026Z" fill="currentColor"/>
</svg>
