<svg width="24" height="24" viewBox="0 0 24 24" fill="none" xmlns="http://www.w3.org/2000/svg">
<path d="M11.9966 1.25C13.0458 1.25 13.8724 2.04253 14.4 3.11191L16.162 6.66516C16.2155 6.77513 16.3421 6.92998 16.5325 7.07164C16.7227 7.21315 16.909 7.29121 17.0316 7.3118L20.2212 7.84613C21.3734 8.03973 22.339 8.60449 22.6525 9.5879C22.9658 10.5705 22.5068 11.5916 21.6783 12.4216L21.6775 12.4225L19.1996 14.9209C19.1014 15.0199 18.9914 15.2064 18.9224 15.4494C18.8538 15.6908 18.8478 15.9107 18.8788 16.0527L18.8793 16.0547L19.5882 19.1454C19.8822 20.4317 19.7848 21.7073 18.8776 22.3742C17.9672 23.0433 16.7232 22.7467 15.593 22.0736L12.603 20.289C12.4775 20.214 12.2618 20.1532 12.0016 20.1532C11.7432 20.1532 11.523 20.2132 11.3893 20.291L11.3874 20.2921L8.40336 22.0732C7.27452 22.7487 6.03201 23.04 5.12158 22.3702C4.21496 21.7032 4.11261 20.43 4.40758 19.1447L5.11637 16.0547L5.11681 16.0527C5.14788 15.9107 5.1418 15.6908 5.07327 15.4494C5.00427 15.2064 4.89426 15.0199 4.79605 14.9209L2.31632 12.4206C1.49312 11.5906 1.03568 10.5704 1.34642 9.58925C1.65807 8.60525 2.6219 8.0398 3.7748 7.84606L6.96179 7.31219L6.96281 7.31202C7.07964 7.29175 7.26318 7.21456 7.45295 7.07268C7.64308 6.93054 7.77006 6.77535 7.82359 6.66516L7.82629 6.65967L9.58609 3.11097L9.58679 3.10957C10.1194 2.04108 10.9485 1.25 11.9966 1.25Z" fill="currentColor"/>
</svg>
