<svg width="24" height="24" viewBox="0 0 24 24" fill="none" xmlns="http://www.w3.org/2000/svg">
<path d="M22.0003 12.0002C22.0003 17.5231 17.5231 22.0003 12.0001 22.0003C11.1734 22.0003 10.3701 21.8998 9.60161 21.7108C6.32683 20.2743 4.03923 17.0034 4.03923 13.198C4.03923 8.06679 8.19933 3.90704 13.3306 3.90704C16.7913 3.90704 19.8104 5.79943 21.409 8.60573C21.7917 9.66546 22.0003 10.8086 22.0003 12.0002Z" fill="#B2BCC3"/>
<path d="M21.409 8.60572C19.8104 5.79941 16.7913 3.90703 13.3306 3.90703C8.19934 3.90703 4.03924 8.06678 4.03924 13.198C4.03924 17.0034 6.32684 20.2743 9.60162 21.7108C5.23711 20.6364 2 16.6964 2 12.0001C2 6.47718 6.47718 2 12.0001 2C16.3315 2 20.0197 4.75363 21.409 8.60572Z" fill="#CDD5D9"/>
<path d="M12.0002 18.5755C15.6318 18.5755 18.5759 15.6315 18.5759 11.9998C18.5759 8.36812 15.6318 5.42407 12.0002 5.42407C8.36849 5.42407 5.42444 8.36812 5.42444 11.9998C5.42444 15.6315 8.36849 18.5755 12.0002 18.5755Z" fill="#CDD5D9"/>
<path d="M12.0001 4.7749C8.00992 4.7749 4.77491 8.00957 4.77491 12.0001C4.77491 15.9907 8.00957 19.2254 12.0001 19.2254C15.9907 19.2254 19.2254 15.9907 19.2254 12.0001C19.2254 8.00957 15.9907 4.7749 12.0001 4.7749ZM12.0001 18.5759C8.36852 18.5759 5.42442 15.6318 5.42442 12.0001C5.42442 8.36851 8.36852 5.42442 12.0001 5.42442C15.6318 5.42442 18.5759 8.36851 18.5759 12.0001C18.5759 15.6318 15.6318 18.5759 12.0001 18.5759Z" fill="#9EB0B7"/>
<path d="M14.6861 12.7536C14.631 12.823 14.6024 12.9102 14.6066 12.9988L14.7046 15.2173C14.7164 15.4807 14.4552 15.6705 14.2086 15.578L12.1289 14.7991C12.0458 14.7677 11.9541 14.7677 11.8711 14.7991L9.79137 15.578C9.71707 15.6059 9.64137 15.608 9.5723 15.5906L13.6595 9.80774C13.6846 9.82204 13.7118 9.8332 13.7397 9.84088L15.8801 10.4332C16.1341 10.5033 16.2338 10.8103 16.0695 11.0164L14.6861 12.7536Z" fill="#9EB0B7"/>
<path d="M13.6595 9.80775L9.57233 15.5906C9.41187 15.5494 9.28699 15.4015 9.29501 15.2173L9.39338 12.9988C9.39722 12.9102 9.36896 12.823 9.3135 12.7536L7.93005 11.0164C7.76611 10.8103 7.86587 10.5033 8.11982 10.4332L10.2599 9.84088C10.3457 9.81751 10.4196 9.76344 10.4688 9.68949L11.6932 7.83688C11.8386 7.61712 12.1613 7.61712 12.3068 7.83688L13.5312 9.68949C13.5639 9.73903 13.6079 9.77984 13.6595 9.80775Z" fill="#B2BCC3"/>
<path d="M14.3903 6.65125V6.6094C14.4095 6.55149 14.4482 6.518 14.5058 6.49498C15.1361 6.24452 15.577 5.80291 15.8285 5.17328C15.8494 5.12096 15.8766 5.08014 15.9307 5.06061H15.9977C16.049 5.08084 16.0772 5.11921 16.0974 5.17049C16.3455 5.79628 16.7825 6.23615 17.4059 6.4894C17.4708 6.51556 17.5207 6.54765 17.5381 6.61812V6.63486C17.5248 6.71125 17.4725 6.74404 17.4042 6.7716C16.7843 7.0238 16.349 7.46158 16.0999 8.08284C16.0786 8.13621 16.0507 8.17772 15.9973 8.20039H15.9304C15.8784 8.17876 15.8494 8.14004 15.8285 8.08737C15.5791 7.46228 15.1417 7.02241 14.518 6.76986C14.4576 6.74544 14.4102 6.71544 14.3899 6.6516L14.3903 6.65125Z" fill="white"/>
</svg>
