<svg width="24" height="24" viewBox="0 0 24 24" fill="none" xmlns="http://www.w3.org/2000/svg">
<path d="M15.9056 7.57907L12.0002 11.6864V1.46965C12.5458 1.46535 13.0442 1.77469 13.2848 2.26447L15.5748 6.90454C15.5791 6.91313 15.5834 6.92173 15.5877 6.93462L15.9056 7.57907Z" fill="#FAF180"/>
<path d="M8.09482 7.57907L12.0002 11.6864V1.46965C11.4546 1.46535 10.9562 1.77469 10.7156 2.26447L8.42564 6.90454C8.42134 6.91313 8.41704 6.92173 8.41275 6.93462L8.09482 7.57907Z" fill="#FFAA39"/>
<path d="M22.8657 9.24609L12.0002 11.6864L15.9056 7.5791L16.6145 7.68221C16.6231 7.68221 16.6403 7.68651 16.6489 7.68651L21.7744 8.43408C22.2513 8.50282 22.6638 8.80786 22.8657 9.24609Z" fill="#FFC943"/>
<path d="M22.5649 10.8744L18.8615 14.4876L18.3244 15.0117L12.0002 11.6864L22.8657 9.24603C23.1235 9.79597 23.0032 10.449 22.5649 10.8744Z" fill="#FFAA39"/>
<path d="M18.8271 22.1953L12.0002 11.6864L18.3201 15.0118L18.449 15.7508L19.3212 20.8548C19.4114 21.3575 19.2224 21.8731 18.8271 22.1953Z" fill="#FFC943"/>
<path d="M18.8271 22.1953C18.3846 22.5691 17.7573 22.6335 17.2503 22.3628L12.6704 19.9526C12.6618 19.9483 12.6489 19.944 12.6361 19.9397L12.0002 19.6046V11.6864L18.8271 22.1953Z" fill="#FFAA39"/>
<path d="M12.0002 11.6864V19.6046L11.3643 19.9397C11.3558 19.944 11.3386 19.9483 11.33 19.9526L6.75006 22.3628C6.23879 22.6378 5.61582 22.5691 5.17329 22.1953L12.0002 11.6864Z" fill="#FAF180"/>
<path d="M12.0002 11.6864L5.1776 22.1953C4.78233 21.8731 4.589 21.3575 4.67922 20.8548L5.55138 15.7508L5.68027 15.0118L12.0002 11.6864Z" fill="#FFC943"/>
<path d="M12.0002 11.6864L5.68027 15.0117L5.14323 14.4876L1.43977 10.8744C1.00154 10.4533 0.881239 9.80026 1.13902 9.24603L12.0002 11.6864Z" fill="#FFAA39"/>
<path d="M12.0002 11.6864L1.13472 9.24606C1.33665 8.80784 1.7491 8.50279 2.22599 8.43405L7.34725 7.69078C7.35584 7.69078 7.37303 7.68649 7.38162 7.68649L8.09052 7.58337L12.0002 11.6864Z" fill="#FFC943"/>
</svg>
