<svg width="40" height="40" viewBox="0 0 40 40" fill="none" xmlns="http://www.w3.org/2000/svg">
<rect width="40" height="40" rx="8" fill="#0088CC"/>
<path d="M10.1249 19.0503C15.4936 16.7924 19.0736 15.3038 20.8648 14.5846C25.9792 12.5311 27.0419 12.1744 27.7346 12.1625C27.8869 12.16 28.2276 12.1964 28.4482 12.3693C28.6345 12.5152 28.6858 12.7124 28.7103 12.8507C28.7348 12.9891 28.7654 13.3043 28.7411 13.5506C28.464 16.3616 27.2647 23.1834 26.6546 26.3318C26.3965 27.664 25.8882 28.1107 25.3961 28.1544C24.3266 28.2494 23.5145 27.4722 22.4787 26.8167C20.8578 25.791 19.9421 25.1526 18.3688 24.1517C16.5505 22.9951 17.7292 22.3593 18.7654 21.3204C19.0366 21.0485 23.7487 16.9111 23.8399 16.5358C23.8513 16.4888 23.8619 16.3139 23.7542 16.2215C23.6465 16.1291 23.4876 16.1607 23.3729 16.1858C23.2104 16.2214 20.621 17.8735 15.6049 21.1422C14.8699 21.6294 14.2042 21.8668 13.6077 21.8543C12.9501 21.8406 11.6853 21.4954 10.745 21.2004C9.59166 20.8385 8.67503 20.6471 8.75485 20.0325C8.79642 19.7124 9.2531 19.385 10.1249 19.0503Z" fill="white"/>
</svg>
