<svg width="24" height="24" viewBox="0 0 24 24" fill="none" xmlns="http://www.w3.org/2000/svg">
<path d="M12 1.25C17.9371 1.25 22.75 6.06294 22.75 12C22.75 17.9371 17.9371 22.75 12 22.75C6.06294 22.75 1.25 17.9371 1.25 12C1.25 6.06294 6.06294 1.25 12 1.25ZM16.8779 8.02051C16.6129 7.53595 16.0051 7.35807 15.5205 7.62305C13.692 8.62303 12.1798 10.5526 11.1631 12.1094C10.7874 12.6847 10.4658 13.23 10.209 13.6914C9.96946 13.459 9.73269 13.2566 9.52051 13.0889C9.24286 12.8694 8.99272 12.6965 8.81055 12.5771L8.49512 12.3818C8.01542 12.1084 7.40542 12.2753 7.13184 12.7549C6.85829 13.2345 7.0254 13.8445 7.50488 14.1182L7.71484 14.25C7.85766 14.3436 8.05796 14.4824 8.28027 14.6582C8.73776 15.0199 9.23134 15.4943 9.54199 16.0137C9.73266 16.3323 10.0843 16.5194 10.4551 16.499C10.8259 16.4786 11.1551 16.2537 11.3096 15.916L11.4082 15.7109C11.4759 15.5725 11.577 15.3695 11.709 15.1201C11.9735 14.6204 12.3586 13.9371 12.8379 13.2031C13.8212 11.6975 15.1092 10.1278 16.4805 9.37793C16.9648 9.11292 17.1427 8.50495 16.8779 8.02051Z" fill="currentColor"/>
</svg>
