<svg width="24" height="24" viewBox="0 0 24 24" fill="none" xmlns="http://www.w3.org/2000/svg">
<path d="M22.4998 3C21.5669 5.97474 20.9215 8.73849 20.9149 11.034C18.585 11.8946 13.845 15.8799 10.5954 19.6246L9.69483 20.6837C9.32788 21.116 8.64329 21.1035 8.29558 20.6562L6.79267 18.73C5.5791 17.1751 3.9272 15.3123 3.03969 14.6076C2.19528 13.9073 1.49146 13.2891 1.50008 13.2259L6.36538 10.958C7.1795 10.5485 7.23344 10.6392 8.26773 13.4051L9.2934 16.2321L10.4185 14.4368C11.7011 12.4369 13.3983 10.344 15.1605 8.52338C16.9223 6.70277 18.7514 5.15428 20.2955 4.23858C21.4721 3.53603 22.4761 3 22.4998 3Z" fill="#11A772"/>
</svg>
