<svg width="25" height="24" viewBox="0 0 25 24" fill="none" xmlns="http://www.w3.org/2000/svg">
<path d="M20.3984 15.6562C20.3186 16.9094 20.2549 17.9039 20.125 18.6982C19.9917 19.5129 19.7783 20.1918 19.3516 20.7852C18.9612 21.3278 18.4587 21.7856 17.876 22.1299C17.2389 22.5062 16.5273 22.6713 15.6807 22.75H9.2998C8.452 22.6711 7.73918 22.506 7.10156 22.1289C6.51831 21.784 6.01524 21.325 5.625 20.7812C5.19847 20.1869 4.98578 19.5071 4.85352 18.6914C4.72457 17.896 4.66307 16.9002 4.58496 15.6455L3.90625 4.75H21.0938L20.3984 15.6562ZM9.89551 10.4609C9.46418 10.4611 9.11426 10.7968 9.11426 11.2109V17.2109C9.11426 17.625 9.46419 17.9608 9.89551 17.9609C10.327 17.9609 10.6768 17.6252 10.6768 17.2109V11.2109C10.6768 10.7967 10.327 10.4609 9.89551 10.4609ZM15.1045 10.4609C14.673 10.4609 14.3232 10.7967 14.3232 11.2109V17.2109C14.3232 17.6252 14.673 17.9609 15.1045 17.9609C15.5358 17.9608 15.8857 17.625 15.8857 17.2109V11.2109C15.8857 10.7968 15.5358 10.4611 15.1045 10.4609Z" fill="currentColor"/>
<path fill-rule="evenodd" clip-rule="evenodd" d="M13.9034 1.28277C14.4921 1.33331 15.0453 1.50576 15.5204 1.84591C15.8717 2.09748 16.1159 2.40542 16.3244 2.73893C16.5176 3.04798 16.7122 3.4333 16.9328 3.8704L17.3774 4.7507H21.875C22.4503 4.7507 22.9167 5.19842 22.9167 5.7507C22.9167 6.30299 22.4503 6.7507 21.875 6.7507C15.6247 6.7507 9.3752 6.7507 3.12499 6.7507C2.5497 6.7507 2.08333 6.30299 2.08333 5.7507C2.08333 5.19842 2.5497 4.7507 3.12499 4.7507H7.7185L8.08912 3.97016C8.30428 3.51696 8.49378 3.11782 8.68412 2.79754C8.88944 2.45207 9.13251 2.13237 9.48813 1.87046C9.96907 1.51626 10.5335 1.33669 11.1353 1.28409C11.5885 1.24449 12.0452 1.24994 12.5 1.25064C13.0321 1.25146 13.5104 1.24902 13.9034 1.28277ZM10.0081 4.7507H15.0621C14.8261 4.28331 14.675 3.98707 14.5381 3.7682C14.3378 3.44787 14.0979 3.30745 13.7178 3.27482C13.4477 3.25163 13.0958 3.2507 12.536 3.2507C11.9622 3.2507 11.601 3.25166 11.3242 3.27585C10.9345 3.30991 10.6915 3.45568 10.4937 3.78866C10.364 4.00687 10.2228 4.29897 10.0081 4.7507Z" fill="currentColor"/>
</svg>
