<svg width="18" height="12" viewBox="0 0 18 12" fill="none" xmlns="http://www.w3.org/2000/svg">
<g clip-path="url(#clip0_13556_34326)">
<path d="M3.52509 0.370483H8.01788C8.64503 0.370483 9.0351 0.881667 8.8888 1.5109L6.79709 10.4914C6.64947 11.1185 6.02155 11.6301 5.39396 11.6301H0.901608C0.275331 11.6301 -0.115612 11.1185 0.0306904 10.4914L2.12328 1.5109C2.26958 0.881667 2.89717 0.370483 3.52509 0.370483Z" fill="#E21836"/>
<path d="M7.64375 0.369873H12.8103C13.4374 0.369873 13.1546 0.881057 13.0071 1.51029L10.9157 10.4908C10.769 11.1179 10.8148 11.6295 10.1864 11.6295H5.01983C4.39147 11.6295 4.00261 11.1179 4.15023 10.4908L6.2415 1.51029C6.39 0.881057 7.01627 0.369873 7.64375 0.369873Z" fill="#00447C"/>
<path d="M12.6055 0.369873H17.0982C17.7263 0.369873 18.1163 0.881057 17.9688 1.51029L15.8774 10.4908C15.7298 11.1179 15.1015 11.6295 14.4736 11.6295H9.98285C9.35449 11.6295 8.96475 11.1179 9.11193 10.4908L11.2036 1.51029C11.3499 0.881057 11.9771 0.369873 12.6055 0.369873Z" fill="#007B84"/>
<path d="M4.69817 3.24785C4.23616 3.25256 4.09971 3.24785 4.05613 3.23756C4.03937 3.31717 3.7276 4.75534 3.72673 4.75654C3.6596 5.04751 3.61076 5.25491 3.44485 5.38884C3.35068 5.4667 3.24073 5.50426 3.11326 5.50426C2.90837 5.50426 2.78901 5.40253 2.76897 5.20958L2.76514 5.14333C2.76514 5.14333 2.82756 4.75359 2.82756 4.7514C2.82756 4.7514 3.15477 3.4408 3.21335 3.26756C3.21642 3.25771 3.2173 3.25256 3.21806 3.24785C2.58116 3.25344 2.46826 3.24785 2.46049 3.23756C2.45622 3.25168 2.44045 3.33294 2.44045 3.33294L2.10634 4.81009L2.07765 4.93537L2.02213 5.34515C2.02213 5.4667 2.046 5.56592 2.09352 5.6498C2.24574 5.9158 2.67994 5.95566 2.92557 5.95566C3.24204 5.95566 3.53892 5.88842 3.73954 5.76566C4.08778 5.5599 4.17889 5.23827 4.26014 4.95245L4.29781 4.80582C4.29781 4.80582 4.63488 3.44464 4.69215 3.26756C4.69434 3.25771 4.69522 3.25256 4.69817 3.24785ZM5.84502 4.34593C5.76376 4.34593 5.61527 4.36564 5.48189 4.43102C5.43349 4.45588 5.38771 4.48457 5.33942 4.51315L5.383 4.35579L5.35913 4.32929C5.07627 4.38656 5.01298 4.39423 4.75169 4.43102L4.72979 4.44558C4.69946 4.69712 4.67252 4.88625 4.56005 5.38067C4.51723 5.5629 4.47277 5.74687 4.4282 5.92865L4.44025 5.95176C4.708 5.93763 4.78925 5.93763 5.02196 5.94146L5.04079 5.92099C5.07036 5.76954 5.07419 5.73406 5.13968 5.42732C5.17045 5.2819 5.23462 4.96235 5.26627 4.84857C5.32442 4.82164 5.3818 4.79513 5.43655 4.79513C5.56698 4.79513 5.5511 4.90891 5.54606 4.95425C5.54048 5.03036 5.49295 5.27894 5.44422 5.49237L5.4117 5.63013C5.38903 5.73187 5.36417 5.83075 5.3415 5.93161L5.35136 5.95176C5.61527 5.93763 5.69576 5.93763 5.92113 5.94146L5.94763 5.92099C5.98837 5.68445 6.0003 5.62115 6.07258 5.27675L6.10893 5.11851C6.17957 4.80882 6.21505 4.65179 6.16161 4.52388C6.1051 4.38054 5.96953 4.34593 5.84502 4.34593ZM7.12618 4.67017C6.9859 4.69711 6.89643 4.71507 6.80751 4.72668C6.71935 4.74081 6.63339 4.75362 6.49782 4.77246L6.48709 4.7822L6.47723 4.78998C6.4631 4.89094 6.45325 4.97822 6.43452 5.08083C6.41864 5.18694 6.39422 5.30751 6.35447 5.48075C6.3237 5.61337 6.30782 5.65958 6.2903 5.70623C6.27322 5.75288 6.25438 5.79822 6.21978 5.92864L6.22788 5.94069L6.23467 5.95175C6.36137 5.94572 6.44427 5.94145 6.52947 5.94069C6.61455 5.93762 6.70271 5.94069 6.83916 5.94145L6.85109 5.93171L6.8639 5.92098C6.88362 5.80336 6.88657 5.77172 6.89862 5.71433C6.91055 5.65279 6.93114 5.56759 6.98162 5.34004C7.0055 5.23316 7.03211 5.1266 7.05686 5.01753C7.08259 4.9089 7.10953 4.80191 7.13516 4.69503L7.13132 4.68211L7.12618 4.67017ZM7.12917 4.233C7.0017 4.15776 6.77797 4.18164 6.6274 4.28556C6.47726 4.3874 6.46018 4.53195 6.58721 4.60817C6.71249 4.68132 6.93709 4.65953 7.08635 4.55473C7.23615 4.4507 7.25488 4.30746 7.12917 4.233ZM7.90005 5.97532C8.15794 5.97532 8.42229 5.90425 8.62127 5.69334C8.77436 5.52229 8.84455 5.26779 8.86887 5.16299C8.94804 4.81563 8.88639 4.65345 8.80896 4.55468C8.69135 4.4041 8.48351 4.35581 8.26789 4.35581C8.13823 4.35581 7.82941 4.36862 7.58817 4.59103C7.41493 4.75146 7.33488 4.96916 7.28658 5.17789C7.23785 5.39055 7.18178 5.77339 7.53385 5.91586C7.64248 5.96251 7.79908 5.97532 7.90005 5.97532ZM7.8799 5.19377C7.93936 4.93073 8.00956 4.70996 8.18871 4.70996C8.3291 4.70996 8.33928 4.87422 8.27687 5.13814C8.2657 5.19672 8.21444 5.41453 8.14513 5.50729C8.09672 5.57573 8.03945 5.61723 7.97616 5.61723C7.95732 5.61723 7.84529 5.61723 7.84354 5.45089C7.84267 5.36876 7.85942 5.28488 7.8799 5.19377ZM9.51354 5.9415L9.53369 5.92102C9.56227 5.76957 9.56698 5.73398 9.63028 5.42736C9.66192 5.28193 9.72741 4.96239 9.75818 4.84861C9.81644 4.82156 9.87284 4.79506 9.92934 4.79506C10.0589 4.79506 10.0431 4.90884 10.038 4.95417C10.0333 5.03039 9.98574 5.27886 9.93613 5.4923L9.90536 5.63006C9.88182 5.7319 9.85619 5.83068 9.83352 5.93164L9.84338 5.95179C10.1082 5.93767 10.1856 5.93766 10.4123 5.9415L10.4396 5.92102C10.4794 5.68437 10.4901 5.62108 10.5646 5.27678L10.6001 5.11844C10.671 4.80875 10.707 4.65182 10.6544 4.52392C10.5962 4.38057 10.4598 4.34597 10.337 4.34597C10.2557 4.34597 10.1064 4.36557 9.9738 4.43105C9.92638 4.45591 9.87886 4.48449 9.83221 4.51318L9.87284 4.35582L9.85104 4.32921C9.56829 4.38659 9.50368 4.39426 9.24273 4.43105L9.22269 4.44562C9.19104 4.69716 9.1653 4.88617 9.05284 5.38071C9.01002 5.56293 8.96556 5.7469 8.9211 5.92869L8.93304 5.95179C9.20122 5.93767 9.28127 5.93766 9.51354 5.9415ZM11.459 5.95174C11.4756 5.87048 11.5745 5.38887 11.5754 5.38887C11.5754 5.38887 11.6596 5.03548 11.6648 5.02267C11.6648 5.02267 11.6913 4.98588 11.7178 4.97131H11.7568C12.1246 4.97131 12.54 4.97131 12.8655 4.73182C13.0871 4.56755 13.2385 4.32499 13.3061 4.0302C13.3236 3.95792 13.3365 3.87196 13.3365 3.786C13.3365 3.67309 13.3139 3.56139 13.2484 3.47412C13.0824 3.24185 12.7517 3.23758 12.3701 3.23583C12.3689 3.23583 12.182 3.23758 12.182 3.23758C11.6935 3.2436 11.4976 3.24185 11.4171 3.23199C11.4103 3.26758 11.3975 3.33088 11.3975 3.33088C11.3975 3.33088 11.2225 4.1419 11.2225 4.14321C11.2225 4.14321 10.8037 5.86753 10.784 5.94878C11.2105 5.94363 11.3854 5.94363 11.459 5.95174ZM11.7833 4.51105C11.7833 4.51105 11.9693 3.70167 11.9684 3.70474L11.9745 3.66324L11.9771 3.63159L12.0514 3.63926C12.0514 3.63926 12.4352 3.67222 12.4441 3.67309C12.5956 3.73168 12.658 3.88269 12.6144 4.07981C12.5747 4.25995 12.4578 4.4114 12.3077 4.48455C12.1841 4.54653 12.0326 4.55168 11.8766 4.55168H11.7756L11.7833 4.51105ZM12.9417 5.20876C12.8925 5.41836 12.836 5.8012 13.1863 5.93764C13.298 5.98517 13.3981 5.9993 13.4998 5.99415C13.6073 5.98835 13.7068 5.93447 13.799 5.85694C13.7907 5.8888 13.7824 5.92067 13.774 5.95265L13.7899 5.97312C14.0419 5.9625 14.1201 5.9625 14.3931 5.96458L14.4178 5.94575C14.4577 5.7114 14.4953 5.48384 14.5989 5.03552C14.6493 4.82077 14.6997 4.60811 14.7515 4.39424L14.7434 4.37069C14.4615 4.42293 14.3862 4.4341 14.1151 4.47253L14.0945 4.48929C14.0917 4.51108 14.0889 4.532 14.0863 4.55291C14.0441 4.4848 13.983 4.42665 13.8887 4.3904C13.7681 4.34299 13.4849 4.40409 13.2415 4.62574C13.0705 4.78398 12.9883 5.0008 12.9417 5.20876ZM13.5337 5.22157C13.594 4.96324 13.6633 4.74466 13.8429 4.74466C13.9565 4.74466 14.0163 4.84946 14.0041 5.02818C13.9945 5.07275 13.9841 5.11973 13.9717 5.17284C13.9538 5.2496 13.9343 5.32571 13.9153 5.40193C13.896 5.45406 13.8736 5.50322 13.849 5.53597C13.8027 5.60145 13.6928 5.64208 13.6295 5.64208C13.6115 5.64208 13.5007 5.64208 13.4969 5.47869C13.496 5.39733 13.5128 5.31356 13.5337 5.22157ZM16.6251 4.3686L16.6034 4.34374C16.3244 4.40025 16.274 4.40923 16.0177 4.44383L15.9989 4.46267C15.998 4.46573 15.9972 4.47044 15.9959 4.47471L15.995 4.47044C15.8043 4.91056 15.8099 4.81561 15.6546 5.1621C15.6537 5.14633 15.6537 5.13647 15.6528 5.11972L15.6139 4.3686L15.5895 4.34374C15.2974 4.40025 15.2905 4.40923 15.0206 4.44383L14.9996 4.46267C14.9967 4.47165 14.9967 4.4815 14.9949 4.49224L14.9967 4.49607C15.0304 4.66843 15.0223 4.63 15.0561 4.90201C15.0719 5.0355 15.0929 5.16976 15.1087 5.30161C15.1353 5.52227 15.1502 5.6309 15.1827 5.96764C15.0005 6.26835 14.9573 6.38213 14.7819 6.64604L14.7831 6.64867L14.6596 6.84403C14.6455 6.86462 14.6326 6.87874 14.6147 6.88477C14.595 6.89451 14.5694 6.89627 14.5338 6.89627H14.4653L14.3636 7.23465L14.7126 7.24067C14.9175 7.23979 15.0463 7.14397 15.1156 7.01519L15.335 6.63914H15.3315L15.3546 6.61264C15.5023 6.29485 16.6251 4.3686 16.6251 4.3686ZM12.9417 8.81271H12.7936L13.3416 7.00024H13.5234L13.5811 6.81353L13.5867 7.02116C13.5799 7.1495 13.6808 7.26328 13.9461 7.24445H14.2528L14.3584 6.89544H14.243C14.1766 6.89544 14.1458 6.87869 14.1497 6.84277L14.1441 6.63153H13.576V6.63263C13.3924 6.63646 12.844 6.65026 12.7329 6.67982C12.5986 6.71443 12.457 6.81627 12.457 6.81627L12.5126 6.62934H11.9813L11.8706 7.00024L11.3153 8.84042H11.2075L11.1018 9.1869H12.1601L12.1246 9.30243H12.6461L12.6807 9.1869H12.827L12.9417 8.81271ZM12.5075 7.36852C12.4224 7.39206 12.264 7.46346 12.264 7.46346L12.4049 7.00024H12.827L12.7252 7.33775C12.7252 7.33775 12.5947 7.34541 12.5075 7.36852ZM12.5156 8.03028C12.5156 8.03028 12.383 8.04692 12.2957 8.06663C12.2097 8.0927 12.0485 8.17483 12.0485 8.17483L12.1939 7.69277H12.6183L12.5156 8.03028ZM12.279 8.81698H11.8556L11.9783 8.41016H12.4005L12.279 8.81698ZM13.2988 7.69277H13.9092L13.8215 7.97684H13.203L13.1102 8.2874H13.6513L13.2416 8.8644C13.2129 8.90678 13.1871 8.92178 13.1586 8.93372C13.1299 8.94828 13.0922 8.96537 13.0486 8.96537H12.8985L12.7953 9.3055H13.188C13.3921 9.3055 13.5127 9.21264 13.6017 9.09075L13.8827 8.70616L13.9431 9.09667C13.9559 9.16982 14.0085 9.21264 14.044 9.22928C14.0834 9.24899 14.124 9.28283 14.1814 9.28787C14.2429 9.2905 14.2874 9.29258 14.3169 9.29258H14.5099L14.6257 8.91193H14.5496C14.5059 8.91193 14.4307 8.90459 14.4179 8.8909C14.4051 8.87426 14.4051 8.84863 14.3982 8.80965L14.337 8.41826H14.0863L14.1963 8.2874H14.8136L14.9085 7.97684H14.337L14.426 7.69277H14.9958L15.1015 7.34246H13.4028L13.2988 7.69277ZM8.1434 8.89608L8.28587 8.42213H8.87141L8.9784 8.06962H8.39231L8.48178 7.77789H9.0545L9.16062 7.43656H7.72759L7.62367 7.77789H7.94924L7.8624 8.06962H7.53595L7.42776 8.42815H7.75322L7.56333 9.0552C7.53771 9.1382 7.57538 9.16985 7.59925 9.2084C7.62367 9.24596 7.64842 9.27082 7.70405 9.28494C7.76143 9.29776 7.80075 9.30542 7.85419 9.30542H8.5143L8.63191 8.91492L8.33931 8.9551C8.2828 8.9551 8.12631 8.94832 8.1434 8.89608ZM8.21056 6.6272L8.06217 6.89539C8.03042 6.95398 8.00184 6.99033 7.9761 7.00709C7.95343 7.02121 7.90853 7.02713 7.84349 7.02713H7.76606L7.66258 7.37022H7.9197C8.04334 7.37022 8.13828 7.32488 8.18362 7.30221C8.23235 7.27615 8.24516 7.29104 8.28283 7.25469L8.36967 7.17945H9.17259L9.27914 6.82224H8.69141L8.79402 6.6272H8.21056ZM9.39592 8.90297C9.38223 8.88326 9.39208 8.84854 9.413 8.77627L9.63245 8.0499H10.4131C10.5269 8.04826 10.609 8.04694 10.6625 8.04311C10.7199 8.03709 10.7823 8.01661 10.8503 7.97982C10.9205 7.94127 10.9564 7.90064 10.9867 7.85399C11.0206 7.80745 11.0749 7.70561 11.1215 7.54857L11.3974 6.62936L10.5873 6.63407C10.5873 6.63407 10.3378 6.67087 10.228 6.71149C10.1171 6.75683 9.95879 6.88342 9.95879 6.88342L10.0319 6.63144H9.53149L8.83086 8.95509C8.806 9.04533 8.78935 9.11082 8.78552 9.15013C8.7842 9.19251 8.83896 9.23445 8.87444 9.2661C8.91638 9.29775 8.97836 9.2926 9.03783 9.29775C9.10036 9.30245 9.18928 9.30541 9.31203 9.30541H9.69663L9.81468 8.9068L9.47038 8.93933C9.43359 8.93933 9.40698 8.91961 9.39592 8.90297ZM9.77405 7.5593H10.594L10.5419 7.72269C10.5346 7.72652 10.5171 7.71459 10.4336 7.72444H9.72356L9.77405 7.5593ZM9.93831 7.01133H10.7652L10.7057 7.20811C10.7057 7.20811 10.316 7.20428 10.2536 7.21578C9.97894 7.2633 9.81851 7.41005 9.81851 7.41005L9.93831 7.01133ZM10.5603 8.26982C10.5535 8.29425 10.5428 8.30914 10.5277 8.32031C10.5111 8.33104 10.4842 8.33487 10.444 8.33487H10.3271L10.334 8.1359H9.84803L9.82832 9.10866C9.82755 9.17885 9.83434 9.21948 9.8857 9.252C9.93706 9.29263 10.0953 9.29778 10.3083 9.29778H10.6128L10.7228 8.93366L10.4577 8.94823L10.3695 8.95338C10.3575 8.94823 10.346 8.94352 10.3332 8.93071C10.322 8.91965 10.3031 8.92644 10.3062 8.85624L10.3083 8.60689L10.5863 8.59539C10.7365 8.59539 10.8006 8.54655 10.8554 8.50001C10.9076 8.45544 10.9247 8.40419 10.9444 8.33487L10.9911 8.1141H10.609L10.5603 8.26982Z" fill="#FEFEFE"/>
</g>
<defs>
<clipPath id="clip0_13556_34326">
<rect width="18" height="12" fill="white"/>
</clipPath>
</defs>
</svg>
