<svg width="24" height="24" viewBox="0 0 24 24" fill="none" xmlns="http://www.w3.org/2000/svg">
<g clip-path="url(#clip0_13556_34203)">
<path d="M23.9786 11.9958C23.9786 18.5904 18.6329 23.9361 12.0383 23.9361C5.44393 23.9361 0.0980225 18.5904 0.0980225 11.9958C0.0980225 5.40127 5.44393 0.055481 12.0383 0.055481C18.6329 0.055481 23.9786 5.40127 23.9786 11.9958Z" fill="#1BA27A"/>
<path d="M17.6421 6.07648H6.33588V8.80603H10.6242V12.818H13.3538V8.80603H17.6421V6.07648Z" fill="white"/>
<path d="M12.0152 13.2453C8.46771 13.2453 5.59165 12.6839 5.59165 11.9913C5.59165 11.2987 8.46759 10.7372 12.0152 10.7372C15.5626 10.7372 18.4386 11.2987 18.4386 11.9913C18.4386 12.6839 15.5626 13.2453 12.0152 13.2453ZM19.2277 12.2003C19.2277 11.3072 15.9986 10.5833 12.0152 10.5833C8.03189 10.5833 4.80252 11.3072 4.80252 12.2003C4.80252 12.9868 7.30652 13.6421 10.6246 13.7873V19.5466H13.3539V13.7896C16.6976 13.6489 19.2277 12.9909 19.2277 12.2003Z" fill="white"/>
</g>
<defs>
<clipPath id="clip0_13556_34203">
<rect width="24" height="24" fill="white"/>
</clipPath>
</defs>
</svg>
