<svg width="20" height="12" viewBox="0 0 20 12" fill="none" xmlns="http://www.w3.org/2000/svg">
<path d="M18.6549 3.01746H17.3976C17.0175 3.01746 16.7251 3.13441 16.5497 3.51453L14.152 8.98236H15.8479C15.8479 8.98236 16.1403 8.25137 16.1988 8.07593C16.3742 8.07593 18.0409 8.07593 18.2748 8.07593C18.3333 8.2806 18.4795 8.95312 18.4795 8.95312H20L18.6549 3.01746ZM16.6666 6.84786C16.8128 6.49698 17.3099 5.1812 17.3099 5.1812C17.3099 5.21043 17.4561 4.83032 17.5146 4.62564L17.6315 5.15196C17.6315 5.15196 17.9532 6.5847 18.0117 6.8771H16.6666V6.84786Z" fill="#3362AB"/>
<path d="M14.269 7.02337C14.269 8.25144 13.1579 9.07015 11.4327 9.07015C10.7018 9.07015 10 8.92395 9.61989 8.74851L9.85381 7.40349L10.0585 7.4912C10.5848 7.72512 10.9357 7.81284 11.5789 7.81284C12.0468 7.81284 12.5439 7.6374 12.5439 7.22805C12.5439 6.96489 12.3392 6.78945 11.6959 6.49705C11.0819 6.20466 10.2632 5.73682 10.2632 4.88887C10.2632 3.71928 11.4035 2.92981 13.0117 2.92981C13.6257 2.92981 14.152 3.04677 14.4737 3.19297L14.2398 4.47951L14.1228 4.36256C13.8304 4.2456 13.4503 4.12864 12.8947 4.12864C12.2807 4.15788 11.9883 4.42104 11.9883 4.65495C11.9883 4.91811 12.3392 5.12279 12.8947 5.38595C13.8304 5.82454 14.269 6.32162 14.269 7.02337Z" fill="#3362AB"/>
<path d="M7.62939e-06 3.07594L0.0292473 2.95898H2.54386C2.89474 2.95898 3.1579 3.07594 3.24562 3.45606L3.80117 6.08763C3.24562 4.68413 1.95907 3.54378 7.62939e-06 3.07594Z" fill="#F9B50B"/>
<path d="M7.33916 3.01746L4.79531 8.95312H3.07016L1.60818 3.98237C2.66081 4.65488 3.538 5.70751 3.85963 6.43851L4.03507 7.05254L5.61402 2.98822H7.33916V3.01746Z" fill="#3362AB"/>
<path d="M8.01172 2.98822H9.6199L8.59651 8.95312H6.98833L8.01172 2.98822Z" fill="#3362AB"/>
</svg>
