<svg width="24" height="24" viewBox="0 0 24 24" fill="none" xmlns="http://www.w3.org/2000/svg">
<path d="M6.99609 3.25012C7.46532 3.25012 7.70021 3.2504 7.78906 3.38586C7.87772 3.52134 7.77765 3.75237 7.57715 4.21399C7.49993 4.39176 7.42973 4.57384 7.36719 4.75891C7.29322 4.97782 7.25584 5.08736 7.17773 5.14368C7.09933 5.19994 6.99013 5.20032 6.77246 5.20032H4.18164C3.64201 5.20032 3.20427 5.63659 3.2041 6.17493C3.2041 6.7134 3.64191 7.15051 4.18164 7.15051H15.9775C16.809 7.13785 18.6285 7.14281 19.2559 7.26575C20.1626 7.38737 20.9643 7.65241 21.6055 8.29211C22.2467 8.93182 22.5119 9.73124 22.6338 10.6359C22.7499 11.4975 22.75 12.5862 22.75 13.9064V15.9943C22.75 17.3144 22.7499 18.4032 22.6338 19.2648C22.5119 20.1692 22.2463 20.9679 21.6055 21.6075C20.9643 22.2472 20.1626 22.5123 19.2559 22.6339C18.3924 22.7497 17.3014 22.7502 15.9785 22.7501H9.97363C8.19181 22.7501 6.75558 22.7503 5.62598 22.5988C4.45324 22.4415 3.46591 22.1047 2.68164 21.3224C1.8974 20.54 1.55908 19.5549 1.40137 18.3849C1.2495 17.2579 1.24998 15.8246 1.25 14.047V6.17493C1.25017 4.55971 2.56263 3.25022 4.18164 3.25012H6.99609ZM17.5 13.0001C16.3954 13.0001 15.5 13.8956 15.5 15.0001C15.5001 16.1046 16.3955 17.0001 17.5 17.0001C18.6045 17.0001 19.4999 16.1046 19.5 15.0001C19.5 13.8956 18.6046 13.0001 17.5 13.0001Z" fill="currentColor"/>
<path d="M19.4557 6.03151C19.563 6.0463 19.6555 5.95355 19.6339 5.84742C19.1001 3.22413 16.7803 1.25 13.9994 1.25C11.3264 1.25 9.07932 3.07399 8.43503 5.54525C8.38746 5.72772 8.52962 5.90006 8.7182 5.90006L15.9679 5.90006C16.3968 5.89365 17.0712 5.89192 17.7232 5.90742C18.3197 5.92161 19.0159 5.95164 19.4557 6.03151Z" fill="currentColor"/>
</svg>
