<svg width="24" height="24" viewBox="0 0 24 24" fill="none" xmlns="http://www.w3.org/2000/svg">
<path fill-rule="evenodd" clip-rule="evenodd" d="M14.668 1.29336C15.4921 1.22116 16.9263 1.09582 17.8867 2.26602C18.591 3.12441 18.7556 4.30234 18.75 5.2875C18.747 5.80486 18.6969 6.322 18.6221 6.80019C18.5776 7.08446 18.5548 7.22685 18.6162 7.32266C18.6777 7.41835 18.821 7.4587 19.1064 7.53945C19.7512 7.7219 20.31 8.002 20.7432 8.46914C21.2987 9.06854 21.5336 9.81659 21.6436 10.6996C21.7502 11.556 21.75 12.6466 21.75 14.0053V16.1293C21.75 17.5229 21.7502 18.6522 21.6191 19.5414C21.4819 20.4721 21.1878 21.2468 20.5225 21.8549C19.8643 22.4563 19.0973 22.6853 18.1943 22.7387C17.342 22.789 16.2259 22.68 14.9375 22.5541C12.3231 22.2986 9.39234 21.8503 6.59375 21.0941C5.06512 20.6822 3.7996 20.3412 3.02344 19.3227C2.61074 18.7809 2.42254 18.1906 2.33398 17.5043C2.25035 16.856 2.24998 16.0673 2.25 15.1107V5.90078C2.25016 4.68086 3.01851 3.51371 4.28711 3.13711C6.23931 2.55777 9.79397 1.70729 14.668 1.29336ZM16.5 13.0004C15.3954 13.0004 14.5 13.8958 14.5 15.0004C14.5002 16.1048 15.3956 17.0004 16.5 17.0004C17.6044 17.0004 18.4998 16.1048 18.5 15.0004C18.5 13.8958 17.6046 13.0004 16.5 13.0004ZM15.8418 3.15176C15.5583 3.10681 15.2218 3.12853 14.7412 3.16934C10.0187 3.57038 6.69623 4.38371 4.8584 4.9291C4.7763 4.95346 4.69649 4.99147 4.62305 5.04141C4.45206 5.15767 4.36695 5.21591 4.4043 5.40957C4.44178 5.60344 4.5867 5.6352 4.87695 5.69863C7.22696 6.21224 10.8416 6.76403 15.0557 7.05605C15.4046 7.08023 15.7401 7.10361 16.0596 7.12734C16.311 7.14602 16.437 7.15578 16.5283 7.08437C16.6197 7.01294 16.6401 6.89395 16.6807 6.65664C16.7553 6.21988 16.806 5.74275 16.8086 5.27676C16.8135 4.4145 16.6502 3.77627 16.3662 3.43008C16.2318 3.26628 16.0785 3.18933 15.8418 3.15176Z" fill="currentColor"/>
</svg>
