<svg width="24" height="24" viewBox="0 0 24 24" fill="none" xmlns="http://www.w3.org/2000/svg">
<path d="M12.0003 1.25034C17.9372 1.25051 22.7503 6.06338 22.7503 12.0003C22.7502 17.9371 17.9371 22.7502 12.0003 22.7503C6.06338 22.7503 1.25051 17.9372 1.25034 12.0003C1.25034 6.06327 6.06327 1.25034 12.0003 1.25034ZM15.7074 8.2933C15.3169 7.90277 14.6838 7.90279 14.2933 8.2933L11.9994 10.5863L9.70737 8.2933C9.3169 7.90287 8.68383 7.90299 8.2933 8.2933C7.90279 8.68384 7.90277 9.31686 8.2933 9.70737L10.5853 12.0003L8.2933 14.2923C7.90277 14.6828 7.90279 15.3159 8.2933 15.7064C8.68382 16.0969 9.31685 16.0969 9.70737 15.7064L11.9994 13.4144L14.2933 15.7074C14.6839 16.0976 15.317 16.0978 15.7074 15.7074C16.0978 15.3169 16.0976 14.6838 15.7074 14.2933L13.4144 12.0003L15.7074 9.70737C16.0978 9.31695 16.0976 8.68386 15.7074 8.2933Z" fill="currentColor"/>
</svg>
