<svg width="24" height="24" viewBox="0 0 24 24" fill="none" xmlns="http://www.w3.org/2000/svg">
<path d="M17.293 5.29297C17.6835 4.90245 18.3165 4.90245 18.707 5.29297C19.0976 5.68349 19.0976 6.31651 18.707 6.70703L13.4141 12L18.707 17.293L18.7754 17.3691C19.0957 17.7619 19.0731 18.3409 18.707 18.707C18.3409 19.0731 17.7619 19.0957 17.3691 18.7754L17.293 18.707L12 13.4141L6.70703 18.707C6.31651 19.0976 5.68349 19.0976 5.29297 18.707C4.90245 18.3165 4.90245 17.6835 5.29297 17.293L10.5859 12L5.29297 6.70703C4.90245 6.31651 4.90245 5.68349 5.29297 5.29297C5.68349 4.90245 6.31651 4.90245 6.70703 5.29297L12 10.5859L17.293 5.29297Z" fill="#0B0C0E"/>
</svg>
